<?xml version="1.0" encoding="UTF-8" standalone="no"?>
<!DOCTYPE svg PUBLIC "-//W3C//DTD SVG 1.1//EN" "http://www.w3.org/Graphics/SVG/1.1/DTD/svg11.dtd">
<svg xmlns="http://www.w3.org/2000/svg" version="1.1" viewBox="0.00 0.00 95.00 123.00">
<g stroke-width="2.00" fill="none" stroke-linecap="butt">
<path stroke="#979aa0" vector-effect="non-scaling-stroke" d="
  M 70.2609 30.9401
  A 0.37 0.37 0.0 0 0 69.8915 30.5695
  L 36.1516 30.5106
  A 0.37 0.37 0.0 0 0 35.7809 30.8799
  L 35.7591 43.3599
  A 0.37 0.37 0.0 0 0 36.1285 43.7305
  L 69.8684 43.7894
  A 0.37 0.37 0.0 0 0 70.2391 43.4201
  L 70.2609 30.9401"
/>
<path stroke="#979aa0" vector-effect="non-scaling-stroke" d="
  M 35.53 85.01
  L 35.55 71.97
  A 0.49 0.48 90.0 0 1 36.03 71.48
  L 67.43 71.53
  A 0.71 0.71 0.0 0 0 68.14 70.82
  L 68.24 58.89
  Q 68.24 58.29 67.64 58.29
  L 36.24 58.30
  Q 35.68 58.30 35.69 57.74
  L 35.73 44.24
  Q 35.73 43.76 35.25 43.76
  L 21.28 43.73
  Q 20.73 43.73 20.73 44.28
  Q 20.82 63.58 20.63 85.68
  Q 20.52 98.60 32.16 99.05
  Q 41.42 99.41 70.26 99.22
  Q 70.75 99.22 70.75 98.73
  L 70.76 86.52
  A 0.74 0.74 0.0 0 0 70.02 85.78
  L 36.26 85.74
  Q 35.53 85.74 35.53 85.01"
/>
</g>
<path fill="#ffffff" d="
  M 0.00 0.00
  L 95.00 0.00
  L 95.00 123.00
  L 0.00 123.00
  L 0.00 0.00
  Z
  M 70.2609 30.9401
  A 0.37 0.37 0.0 0 0 69.8915 30.5695
  L 36.1516 30.5106
  A 0.37 0.37 0.0 0 0 35.7809 30.8799
  L 35.7591 43.3599
  A 0.37 0.37 0.0 0 0 36.1285 43.7305
  L 69.8684 43.7894
  A 0.37 0.37 0.0 0 0 70.2391 43.4201
  L 70.2609 30.9401
  Z
  M 35.53 85.01
  L 35.55 71.97
  A 0.49 0.48 90.0 0 1 36.03 71.48
  L 67.43 71.53
  A 0.71 0.71 0.0 0 0 68.14 70.82
  L 68.24 58.89
  Q 68.24 58.29 67.64 58.29
  L 36.24 58.30
  Q 35.68 58.30 35.69 57.74
  L 35.73 44.24
  Q 35.73 43.76 35.25 43.76
  L 21.28 43.73
  Q 20.73 43.73 20.73 44.28
  Q 20.82 63.58 20.63 85.68
  Q 20.52 98.60 32.16 99.05
  Q 41.42 99.41 70.26 99.22
  Q 70.75 99.22 70.75 98.73
  L 70.76 86.52
  A 0.74 0.74 0.0 0 0 70.02 85.78
  L 36.26 85.74
  Q 35.53 85.74 35.53 85.01
  Z"
/>
<rect fill="#2e3540" x="-17.24" y="-6.61" transform="translate(53.01,37.15) rotate(0.1)" width="34.48" height="13.22" rx="0.37"/>
<path fill="#2e3540" d="
  M 36.26 85.74
  L 70.02 85.78
  A 0.74 0.74 0.0 0 1 70.76 86.52
  L 70.75 98.73
  Q 70.75 99.22 70.26 99.22
  Q 41.42 99.41 32.16 99.05
  Q 20.52 98.60 20.63 85.68
  Q 20.82 63.58 20.73 44.28
  Q 20.73 43.73 21.28 43.73
  L 35.25 43.76
  Q 35.73 43.76 35.73 44.24
  L 35.69 57.74
  Q 35.68 58.30 36.24 58.30
  L 67.64 58.29
  Q 68.24 58.29 68.24 58.89
  L 68.14 70.82
  A 0.71 0.71 0.0 0 1 67.43 71.53
  L 36.03 71.48
  A 0.49 0.48 -90.0 0 0 35.55 71.97
  L 35.53 85.01
  Q 35.53 85.74 36.26 85.74
  Z"
/>
</svg>
