<svg xmlns="http://www.w3.org/2000/svg" width="156" height="125" viewBox="0 0 156 125" version="1.1"><path d="M 43.227 2.838 L 41.955 3.646 42.227 22.573 L 42.500 41.500 61.500 41.500 L 80.500 41.500 80.773 23.130 L 81.046 4.760 79.901 3.380 L 78.755 2 61.628 2.015 L 44.500 2.031 43.227 2.838 M 106.263 3.265 L 104.026 4.500 93.911 21.500 C 88.348 30.850, 82.694 39.962, 81.347 41.750 L 78.898 45 60.521 45 L 42.143 45 40.571 43.429 L 39 41.857 39 37.129 L 39 32.400 37.800 31.200 C 37.140 30.540, 35.786 30, 34.791 30 L 32.983 30 26.741 35.641 C 23.309 38.743, 15.888 45.791, 10.250 51.304 L 0 61.326 0 62.838 L 0 64.350 14.750 79.255 C 22.863 87.453, 30.742 94.813, 32.259 95.611 L 35.018 97.061 37.009 95.995 L 39 94.930 39 90.399 L 39 85.869 40.035 83.934 L 41.070 82 59.035 82 L 77 82 78.750 80.246 C 79.713 79.281, 85.170 70.844, 90.877 61.496 C 96.585 52.148, 101.958 43.938, 102.818 43.250 L 104.382 42 121.491 42 L 138.600 42 139.800 40.800 L 141 39.600 141 21.835 L 141 4.070 139.066 3.035 L 137.131 2 122.816 2.015 L 108.500 2.029 106.263 3.265 M 102.843 46.750 C 102.036 47.712, 97.129 55.618, 91.938 64.318 C 86.747 73.019, 81.695 81.006, 80.711 82.068 L 78.922 84 74.211 84.133 C 71.620 84.206, 64.550 84.168, 58.500 84.048 L 47.500 83.829 44.750 84.890 L 42 85.950 42 103.275 L 42 120.600 43.200 121.800 L 44.400 123 61.526 123 L 78.651 123 80.668 120.750 C 81.778 119.513, 87.522 110.513, 93.432 100.750 L 104.179 83 121.389 83 L 138.600 83 139.800 81.800 L 141 80.600 141 64 L 141 47.400 139.800 46.200 L 138.600 45 121.455 45 L 104.310 45 102.843 46.750" stroke="none" fill="#04144c" fill-rule="evenodd"/></svg>