<?xml version="1.0" encoding="UTF-8" standalone="no" ?>
<!DOCTYPE svg PUBLIC "-//W3C//DTD SVG 1.1//EN" "http://www.w3.org/Graphics/SVG/1.1/DTD/svg11.dtd">
<svg xmlns="http://www.w3.org/2000/svg" xmlns:xlink="http://www.w3.org/1999/xlink" version="1.1" width="1600" height="1600" viewBox="0 0 1600 1600" xml:space="preserve">
<desc>Created with Fabric.js 5.2.4</desc>
<defs>
</defs>
<rect x="0" y="0" width="100%" height="100%" fill="transparent"></rect>
<g transform="matrix(Infinity NaN NaN Infinity 0 0)" id="b2a3992f-4d81-48fe-8d26-1a49fb073b44"  >
</g>
<g transform="matrix(1 0 0 1 800 800)" id="b598d8fb-b626-4f25-beaa-0ac8872542f3"  >
<rect style="stroke: none; stroke-width: 1; stroke-dasharray: none; stroke-linecap: butt; stroke-dashoffset: 0; stroke-linejoin: miter; stroke-miterlimit: 4; fill: rgb(255,255,255); fill-rule: nonzero; opacity: 1; visibility: hidden;" vector-effect="non-scaling-stroke"  x="-800" y="-800" rx="0" ry="0" width="1600" height="1600" />
</g>
<g transform="matrix(3.11 0 0 3.11 574.97 1037.55)"  >
<polygon style="stroke: none; stroke-width: 1; stroke-dasharray: none; stroke-linecap: butt; stroke-dashoffset: 0; stroke-linejoin: miter; stroke-miterlimit: 4; fill: rgb(255,255,255); fill-rule: nonzero; opacity: 0.61;" vector-effect="non-scaling-stroke"  points="7.02,-6.42 1.46,6.42 -1.48,6.42 -7.02,-6.42 -3.81,-6.42 0.1,2.75 4.06,-6.42 " />
</g>
<g transform="matrix(3.11 0 0 3.11 611.11 1041.72)"  >
<path style="stroke: none; stroke-width: 1; stroke-dasharray: none; stroke-linecap: butt; stroke-dashoffset: 0; stroke-linejoin: miter; stroke-miterlimit: 4; fill: rgb(255,255,255); fill-rule: nonzero; opacity: 0.61;" vector-effect="non-scaling-stroke"  transform=" translate(-218.36, -468.93)" d="M 223.507 469.741 L 216.038 469.741 C 216.31300000000002 470.971 217.359 471.723 218.864 471.723 C 219.91 471.723 220.662 471.411 221.341 470.769 L 222.864 472.42 C 221.947 473.466 220.57 474.017 218.79 474.017 C 215.37699999999998 474.017 213.156 471.87 213.156 468.93399999999997 C 213.156 465.97999999999996 215.413 463.85099999999994 218.423 463.85099999999994 C 221.322 463.85099999999994 223.561 465.79599999999994 223.561 468.97099999999995 C 223.562 469.191 223.526 469.503 223.507 469.741 M 216.002 468.071 L 220.865 468.071 C 220.663 466.82300000000004 219.727 466.016 218.443 466.016 C 217.139 466.016 216.204 466.805 216.002 468.071" stroke-linecap="round" />
</g>
<g transform="matrix(3.11 0 0 3.11 646.4 1041.72)"  >
<path style="stroke: none; stroke-width: 1; stroke-dasharray: none; stroke-linecap: butt; stroke-dashoffset: 0; stroke-linejoin: miter; stroke-miterlimit: 4; fill: rgb(255,255,255); fill-rule: nonzero; opacity: 0.61;" vector-effect="non-scaling-stroke"  transform=" translate(-229.7, -468.93)" d="M 224.735 468.934 C 224.735 465.961 227.02900000000002 463.851 230.24 463.851 C 232.31400000000002 463.851 233.947 464.75 234.663 466.365 L 232.443 467.558 C 231.911 466.622 231.122 466.2 230.222 466.2 C 228.77200000000002 466.2 227.63500000000002 467.209 227.63500000000002 468.93399999999997 C 227.63500000000002 470.659 228.77300000000002 471.66799999999995 230.222 471.66799999999995 C 231.121 471.66799999999995 231.91 471.26399999999995 232.443 470.30999999999995 L 234.663 471.52099999999996 C 233.947 473.09899999999993 232.31400000000002 474.01599999999996 230.24 474.01599999999996 C 227.029 474.017 224.735 471.907 224.735 468.934" stroke-linecap="round" />
</g>
<g transform="matrix(3.11 0 0 3.11 675.51 1038.54)"  >
<path style="stroke: none; stroke-width: 1; stroke-dasharray: none; stroke-linecap: butt; stroke-dashoffset: 0; stroke-linejoin: miter; stroke-miterlimit: 4; fill: rgb(255,255,255); fill-rule: nonzero; opacity: 0.61;" vector-effect="non-scaling-stroke"  transform=" translate(-239.06, -467.92)" d="M 242.828 473.393 C 242.241 473.815 241.37800000000001 474.017 240.497 474.017 C 238.167 474.017 236.80900000000003 472.824 236.80900000000003 470.475 L 236.80900000000003 466.42 L 235.28600000000003 466.42 L 235.28600000000003 464.218 L 236.80900000000003 464.218 L 236.80900000000003 461.814 L 239.67200000000003 461.814 L 239.67200000000003 464.218 L 242.13100000000003 464.218 L 242.13100000000003 466.42 L 239.67200000000003 466.42 L 239.67200000000003 470.439 C 239.67200000000003 471.283 240.13000000000002 471.742 240.90100000000004 471.742 C 241.32300000000004 471.742 241.74500000000003 471.61400000000003 242.05700000000004 471.375 L 242.828 473.393 z" stroke-linecap="round" />
</g>
<g transform="matrix(3.11 0 0 3.11 738.84 1041.95)"  >
<path style="stroke: none; stroke-width: 1; stroke-dasharray: none; stroke-linecap: butt; stroke-dashoffset: 0; stroke-linejoin: miter; stroke-miterlimit: 4; fill: rgb(255,255,255); fill-rule: nonzero; opacity: 0.61;" vector-effect="non-scaling-stroke"  transform=" translate(-259.41, -469.01)" d="M 262.474 463.997 L 262.474 466.64 C 262.236 466.622 262.05199999999996 466.603 261.832 466.603 C 260.254 466.603 259.20799999999997 467.46500000000003 259.20799999999997 469.356 L 259.20799999999997 474.017 L 256.34499999999997 474.017 L 256.34499999999997 464.144 L 259.07899999999995 464.144 L 259.07899999999995 465.447 C 259.776 464.493 260.951 463.997 262.474 463.997" stroke-linecap="round" />
</g>
<g transform="matrix(3.11 0 0 3.11 767.53 1036.85)"  >
<path style="stroke: none; stroke-width: 1; stroke-dasharray: none; stroke-linecap: butt; stroke-dashoffset: 0; stroke-linejoin: miter; stroke-miterlimit: 4; fill: rgb(255,255,255); fill-rule: nonzero; opacity: 0.61;" vector-effect="non-scaling-stroke"  transform=" translate(-268.64, -467.37)" d="M 263.299 472.53 L 264.308 470.291 C 265.391 471.08 267.005 471.63 268.54699999999997 471.63 C 270.30899999999997 471.63 271.02399999999994 471.043 271.02399999999994 470.254 C 271.02399999999994 467.85 263.55499999999995 469.502 263.55499999999995 464.73 C 263.55499999999995 462.546 265.31699999999995 460.73 268.96799999999996 460.73 C 270.58299999999997 460.73 272.23499999999996 461.115 273.42699999999996 461.868 L 272.50899999999996 464.125 C 271.316 463.446 270.08699999999993 463.116 268.94899999999996 463.116 C 267.18799999999993 463.116 266.50899999999996 463.776 266.50899999999996 464.584 C 266.50899999999996 466.951 273.977 465.318 273.977 470.034 C 273.977 472.181 272.197 474.016 268.527 474.016 C 266.492 474.017 264.437 473.411 263.299 472.53" stroke-linecap="round" />
</g>
<g transform="matrix(3.11 0 0 3.11 803.75 1041.72)"  >
<path style="stroke: none; stroke-width: 1; stroke-dasharray: none; stroke-linecap: butt; stroke-dashoffset: 0; stroke-linejoin: miter; stroke-miterlimit: 4; fill: rgb(255,255,255); fill-rule: nonzero; opacity: 0.61;" vector-effect="non-scaling-stroke"  transform=" translate(-280.28, -468.93)" d="M 285.428 469.741 L 277.959 469.741 C 278.234 470.971 279.28000000000003 471.723 280.785 471.723 C 281.831 471.723 282.583 471.411 283.262 470.769 L 284.785 472.42 C 283.867 473.466 282.49100000000004 474.017 280.711 474.017 C 277.298 474.017 275.077 471.87 275.077 468.93399999999997 C 275.077 465.97999999999996 277.334 463.85099999999994 280.344 463.85099999999994 C 283.24399999999997 463.85099999999994 285.48199999999997 465.79599999999994 285.48199999999997 468.97099999999995 C 285.484 469.191 285.447 469.503 285.428 469.741 M 277.923 468.071 L 282.786 468.071 C 282.584 466.82300000000004 281.648 466.016 280.364 466.016 C 279.061 466.016 278.125 466.805 277.923 468.071" stroke-linecap="round" />
</g>
<g transform="matrix(3.11 0 0 3.11 839.78 1041.72)"  >
<path style="stroke: none; stroke-width: 1; stroke-dasharray: none; stroke-linecap: butt; stroke-dashoffset: 0; stroke-linejoin: miter; stroke-miterlimit: 4; fill: rgb(255,255,255); fill-rule: nonzero; opacity: 0.61;" vector-effect="non-scaling-stroke"  transform=" translate(-291.86, -468.93)" d="M 297.007 469.741 L 289.538 469.741 C 289.813 470.971 290.85900000000004 471.723 292.36400000000003 471.723 C 293.41 471.723 294.16200000000003 471.411 294.841 470.769 L 296.36400000000003 472.42 C 295.446 473.466 294.07000000000005 474.017 292.29 474.017 C 288.877 474.017 286.656 471.87 286.656 468.93399999999997 C 286.656 465.97999999999996 288.913 463.85099999999994 291.923 463.85099999999994 C 294.822 463.85099999999994 297.061 465.79599999999994 297.061 468.97099999999995 C 297.062 469.191 297.025 469.503 297.007 469.741 M 289.501 468.071 L 294.364 468.071 C 294.162 466.82300000000004 293.226 466.016 291.94199999999995 466.016 C 290.639 466.016 289.703 466.805 289.501 468.071" stroke-linecap="round" />
</g>
<g transform="matrix(3.11 0 0 3.11 878.74 1036.34)"  >
<polygon style="stroke: none; stroke-width: 1; stroke-dasharray: none; stroke-linecap: butt; stroke-dashoffset: 0; stroke-linejoin: miter; stroke-miterlimit: 4; fill: rgb(255,255,255); fill-rule: nonzero; opacity: 0.61;" vector-effect="non-scaling-stroke"  points="-1.17,2.94 -2.55,4.29 -2.55,6.81 -5.41,6.81 -5.41,-6.81 -2.55,-6.81 -2.55,0.9 1.63,-3.06 5.05,-3.06 0.94,1.12 5.41,6.81 1.94,6.81 " />
</g>
<g transform="matrix(3.11 0 0 3.11 723.36 1060.35)"  >
<path style="stroke: none; stroke-width: 1; stroke-dasharray: none; stroke-linecap: butt; stroke-dashoffset: 0; stroke-linejoin: miter; stroke-miterlimit: 4; fill: rgb(255,255,255); fill-rule: nonzero; opacity: 0.61;" vector-effect="non-scaling-stroke"  transform=" translate(-254.43, -474.92)" d="M 256.601 475.359 L 256.601 475.359 L 253.74099999999999 472.49899999999997 C 253.30599999999998 473.00699999999995 252.78799999999998 473.44199999999995 252.207 473.78299999999996 C 252.11499999999998 473.852 252.021 473.919 251.924 473.98199999999997 L 254.951 477.00899999999996 C 255.40699999999998 477.465 256.146 477.465 256.601 477.00899999999996 C 257.057 476.554 257.057 475.815 256.601 475.359" stroke-linecap="round" />
</g>
<g transform="matrix(3.11 0 0 3.11 706.98 1039.48)"  >
<path style="stroke: none; stroke-width: 1; stroke-dasharray: none; stroke-linecap: butt; stroke-dashoffset: 0; stroke-linejoin: miter; stroke-miterlimit: 4; fill: rgb(255,255,255); fill-rule: nonzero; opacity: 0.61;" vector-effect="non-scaling-stroke"  transform=" translate(-249.17, -468.21)" d="M 249.984 463.244 C 250.205 463.071 250.479 462.963 250.781 462.963 C 250.823 462.963 250.864 462.96500000000003 250.905 462.969 C 250.691 462.813 250.427 462.71999999999997 250.141 462.71999999999997 C 249.74599999999998 462.71999999999997 249.397 462.9 249.16 463.178 C 249.109 463.178 249.06 463.18399999999997 249.009 463.186 C 249.04799999999997 463.109 249.07299999999998 463.024 249.07299999999998 462.931 C 249.07299999999998 462.697 248.92999999999998 462.49699999999996 248.72699999999998 462.412 C 248.81399999999996 462.53799999999995 248.86499999999998 462.691 248.86499999999998 462.85699999999997 C 248.86499999999998 462.979 248.83399999999997 463.094 248.784 463.198 C 245.97299999999998 463.399 243.754 465.73699999999997 243.754 468.59799999999996 C 243.754 471.59099999999995 246.17999999999998 474.018 249.17399999999998 474.018 C 252.16699999999997 474.018 254.59399999999997 471.592 254.59399999999997 468.59799999999996 C 254.595 465.879 252.593 463.635 249.984 463.244 M 247.983 464.656 C 248.418 464.656 248.827 464.76800000000003 249.18200000000002 464.96500000000003 C 249.556 464.72 250.002 464.57800000000003 250.48100000000002 464.57800000000003 C 251.19200000000004 464.57800000000003 251.82900000000004 464.89000000000004 252.26500000000001 465.384 C 251.83 465.005 251.26100000000002 464.774 250.638 464.774 C 250.189 464.774 249.768 464.894 249.404 465.103 C 249.325 465.149 249.248 465.199 249.17499999999998 465.253 C 249.10999999999999 465.205 249.04199999999997 465.15999999999997 248.97099999999998 465.11899999999997 C 248.60199999999998 464.9 248.17099999999996 464.775 247.71099999999998 464.775 C 247.41099999999997 464.775 247.123 464.82899999999995 246.85699999999997 464.92699999999996 C 247.196 464.754 247.578 464.656 247.983 464.656 M 251.772 469.098 C 251.887 469.403 251.953 469.732 251.953 470.077 C 251.953 471.611 250.709 472.854 249.175 472.854 C 247.64100000000002 472.854 246.39800000000002 471.611 246.39800000000002 470.077 C 246.39800000000002 469.73199999999997 246.46400000000003 469.403 246.57900000000004 469.098 C 245.95900000000003 468.716 245.54400000000004 468.034 245.54400000000004 467.252 C 245.54400000000004 466.055 246.51500000000004 465.084 247.71200000000005 465.084 C 248.27700000000004 465.084 248.79000000000005 465.302 249.17500000000004 465.656 C 249.56100000000004 465.302 250.07400000000004 465.084 250.63900000000004 465.084 C 251.83600000000004 465.084 252.80700000000004 466.055 252.80700000000004 467.252 C 252.807 468.034 252.392 468.716 251.772 469.098" stroke-linecap="round" />
</g>
<g transform="matrix(3.11 0 0 3.11 711.94 1035.9)"  >
<path style="stroke: none; stroke-width: 1; stroke-dasharray: none; stroke-linecap: butt; stroke-dashoffset: 0; stroke-linejoin: miter; stroke-miterlimit: 4; fill: rgb(255,255,255); fill-rule: nonzero; opacity: 0.61;" vector-effect="non-scaling-stroke"  transform=" translate(-250.76, -467.06)" d="M 251.666 467.061 C 251.666 467.558 251.262 467.962 250.765 467.962 C 250.26799999999997 467.962 249.86399999999998 467.558 249.86399999999998 467.061 C 249.86399999999998 466.56399999999996 250.26799999999997 466.15999999999997 250.765 466.15999999999997 C 250.86599999999999 466.15999999999997 250.962 466.17699999999996 251.052 466.207 C 251.022 466.269 251.007 466.339 251.007 466.411 C 251.007 466.684 251.228 466.90500000000003 251.501 466.90500000000003 C 251.55100000000002 466.90500000000003 251.6 466.89700000000005 251.647 466.88300000000004 C 251.66 466.941 251.666 467 251.666 467.061" stroke-linecap="round" />
</g>
<g transform="matrix(3.11 0 0 3.11 702.01 1035.9)"  >
<path style="stroke: none; stroke-width: 1; stroke-dasharray: none; stroke-linecap: butt; stroke-dashoffset: 0; stroke-linejoin: miter; stroke-miterlimit: 4; fill: rgb(255,255,255); fill-rule: nonzero; opacity: 0.61;" vector-effect="non-scaling-stroke"  transform=" translate(-247.57, -467.06)" d="M 248.255 467.061 C 248.255 467.43699999999995 247.95 467.74199999999996 247.57399999999998 467.74199999999996 C 247.19799999999998 467.74199999999996 246.89299999999997 467.43699999999995 246.89299999999997 467.061 C 246.89299999999997 466.685 247.19799999999998 466.38 247.57399999999998 466.38 C 247.64999999999998 466.38 247.72299999999998 466.393 247.791 466.415 C 247.768 466.46200000000005 247.757 466.51500000000004 247.757 466.57 C 247.757 466.776 247.924 466.944 248.131 466.944 C 248.169 466.944 248.206 466.93800000000005 248.241 466.927 C 248.25 466.97 248.255 467.015 248.255 467.061" stroke-linecap="round" />
</g>
<g transform="matrix(3.11 0 0 3.11 688.47 1039.25)"  >
<rect style="stroke: none; stroke-width: 1; stroke-dasharray: none; stroke-linecap: butt; stroke-dashoffset: 0; stroke-linejoin: miter; stroke-miterlimit: 4; fill: rgb(255,255,255); fill-rule: nonzero; opacity: 0.61;" vector-effect="non-scaling-stroke"  x="-0.31" y="-0.31" rx="0" ry="0" width="0.62" height="0.62" />
</g>
<g transform="matrix(3.11 0 0 3.11 725.54 1039.25)"  >
<rect style="stroke: none; stroke-width: 1; stroke-dasharray: none; stroke-linecap: butt; stroke-dashoffset: 0; stroke-linejoin: miter; stroke-miterlimit: 4; fill: rgb(255,255,255); fill-rule: nonzero; opacity: 0.61;" vector-effect="non-scaling-stroke"  x="-0.31" y="-0.31" rx="0" ry="0" width="0.62" height="0.62" />
</g>
<g transform="matrix(3.11 0 0 3.11 706.98 1029.69)"  >
<path style="stroke: none; stroke-width: 1; stroke-dasharray: none; stroke-linecap: butt; stroke-dashoffset: 0; stroke-linejoin: miter; stroke-miterlimit: 4; fill: rgb(255,255,255); fill-rule: nonzero; opacity: 0.61;" vector-effect="non-scaling-stroke"  transform=" translate(-249.18, -465.07)" d="M 255.205 468.082 L 255.06500000000003 468.082 C 255.06500000000003 464.834 252.42300000000003 462.192 249.17500000000004 462.192 C 245.92700000000005 462.192 243.28500000000005 464.834 243.28500000000005 468.082 L 243.14500000000007 468.082 C 243.14500000000007 466.471 243.77200000000008 464.957 244.91100000000006 463.818 C 246.05000000000007 462.679 247.56400000000005 462.05199999999996 249.17500000000007 462.05199999999996 C 250.78600000000006 462.05199999999996 252.30000000000007 462.679 253.43900000000008 463.818 C 254.578 464.957 255.205 466.471 255.205 468.082" stroke-linecap="round" />
</g>
<g transform="matrix(3.11 0 0 3.11 707.01 1020.53)"  >
<rect style="stroke: none; stroke-width: 1; stroke-dasharray: none; stroke-linecap: butt; stroke-dashoffset: 0; stroke-linejoin: miter; stroke-miterlimit: 4; fill: rgb(255,255,255); fill-rule: nonzero; opacity: 0.61;" vector-effect="non-scaling-stroke"  x="-0.31" y="-0.31" rx="0" ry="0" width="0.62" height="0.62" />
</g>
<g transform="matrix(3.11 0 0 3.11 706.99 1020.53)"  >
<rect style="stroke: none; stroke-width: 1; stroke-dasharray: none; stroke-linecap: butt; stroke-dashoffset: 0; stroke-linejoin: miter; stroke-miterlimit: 4; fill: rgb(255,255,255); fill-rule: nonzero; opacity: 0.61;" vector-effect="non-scaling-stroke"  x="-4.225" y="-0.07" rx="0" ry="0" width="8.45" height="0.14" />
</g>
<g transform="matrix(3.11 0 0 3.11 693.94 1020.62)"  >
<path style="stroke: none; stroke-width: 1; stroke-dasharray: none; stroke-linecap: butt; stroke-dashoffset: 0; stroke-linejoin: miter; stroke-miterlimit: 4; fill: rgb(255,255,255); fill-rule: nonzero; opacity: 0.61;" vector-effect="non-scaling-stroke"  transform=" translate(-244.98, -462.15)" d="M 245.174 462.15 C 245.174 462.258 245.086 462.346 244.978 462.346 C 244.87 462.346 244.782 462.258 244.782 462.15 C 244.782 462.042 244.87 461.95399999999995 244.978 461.95399999999995 C 245.086 461.954 245.174 462.042 245.174 462.15" stroke-linecap="round" />
</g>
<g transform="matrix(3.11 0 0 3.11 720.13 1020.62)"  >
<path style="stroke: none; stroke-width: 1; stroke-dasharray: none; stroke-linecap: butt; stroke-dashoffset: 0; stroke-linejoin: miter; stroke-miterlimit: 4; fill: rgb(255,255,255); fill-rule: nonzero; opacity: 0.61;" vector-effect="non-scaling-stroke"  transform=" translate(-253.4, -462.15)" d="M 253.596 462.15 C 253.596 462.258 253.508 462.346 253.4 462.346 C 253.292 462.346 253.204 462.258 253.204 462.15 C 253.204 462.042 253.292 461.95399999999995 253.4 461.95399999999995 C 253.509 461.954 253.596 462.042 253.596 462.15" stroke-linecap="round" />
</g>
<g transform="matrix(3.11 0 0 3.11 906.1 1055.65)"  >
<path style="stroke: none; stroke-width: 1; stroke-dasharray: none; stroke-linecap: butt; stroke-dashoffset: 0; stroke-linejoin: miter; stroke-miterlimit: 4; fill: rgb(255,255,255); fill-rule: nonzero; opacity: 0.61;" vector-effect="non-scaling-stroke"  transform=" translate(-313.17, -473.41)" d="M 314.356 473.409 C 314.356 474.968 311.992 474.968 311.992 473.409 C 311.993 471.851 314.356 471.851 314.356 473.409 z" stroke-linecap="round" />
</g>
<g transform="matrix(3.11 0 0 3.11 432.23 1046.96)"  >
<path style="stroke: none; stroke-width: 1; stroke-dasharray: none; stroke-linecap: butt; stroke-dashoffset: 0; stroke-linejoin: miter; stroke-miterlimit: 4; fill: rgb(255,255,255); fill-rule: nonzero; opacity: 0.61;" vector-effect="non-scaling-stroke"  transform=" translate(-160.86, -470.62)" d="M 161.739 466.549 L 163.511 472.637 L 165.36599999999999 466.549 L 167.581 466.549 L 164.75799999999998 474.68899999999996 L 162.42799999999997 474.68899999999996 L 161.59099999999998 472.29299999999995 L 160.86899999999997 469.5849999999999 L 160.14699999999996 472.29299999999995 L 159.30999999999997 474.68899999999996 L 156.97999999999996 474.68899999999996 L 154.14099999999996 466.549 L 156.37199999999996 466.549 L 158.22699999999995 472.637 L 159.98299999999995 466.549 L 161.739 466.549 z" stroke-linecap="round" />
</g>
<g transform="matrix(3.11 0 0 3.11 478.82 1046.96)"  >
<path style="stroke: none; stroke-width: 1; stroke-dasharray: none; stroke-linecap: butt; stroke-dashoffset: 0; stroke-linejoin: miter; stroke-miterlimit: 4; fill: rgb(255,255,255); fill-rule: nonzero; opacity: 0.61;" vector-effect="non-scaling-stroke"  transform=" translate(-175.83, -470.62)" d="M 176.713 466.549 L 178.48499999999999 472.637 L 180.33999999999997 466.549 L 182.55499999999998 466.549 L 179.73199999999997 474.68899999999996 L 177.40199999999996 474.68899999999996 L 176.56499999999997 472.29299999999995 L 175.84299999999996 469.5849999999999 L 175.12099999999995 472.29299999999995 L 174.28399999999996 474.68899999999996 L 171.95399999999995 474.68899999999996 L 169.11499999999995 466.549 L 171.34599999999995 466.549 L 173.20099999999994 472.637 L 174.95699999999994 466.549 L 176.713 466.549 z" stroke-linecap="round" />
</g>
<g transform="matrix(3.11 0 0 3.11 525.4 1046.96)"  >
<path style="stroke: none; stroke-width: 1; stroke-dasharray: none; stroke-linecap: butt; stroke-dashoffset: 0; stroke-linejoin: miter; stroke-miterlimit: 4; fill: rgb(255,255,255); fill-rule: nonzero; opacity: 0.61;" vector-effect="non-scaling-stroke"  transform=" translate(-190.81, -470.62)" d="M 191.687 466.549 L 193.459 472.637 L 195.314 466.549 L 197.529 466.549 L 194.706 474.68899999999996 L 192.37599999999998 474.68899999999996 L 191.539 472.29299999999995 L 190.81699999999998 469.5849999999999 L 190.09499999999997 472.29299999999995 L 189.25799999999998 474.68899999999996 L 186.92799999999997 474.68899999999996 L 184.08899999999997 466.549 L 186.31999999999996 466.549 L 188.17499999999995 472.637 L 189.93099999999995 466.549 L 191.687 466.549 z" stroke-linecap="round" />
</g>
<g transform="matrix(3.11 0 0 3.11 553.16 1055.99)"  >
<path style="stroke: none; stroke-width: 1; stroke-dasharray: none; stroke-linecap: butt; stroke-dashoffset: 0; stroke-linejoin: miter; stroke-miterlimit: 4; fill: rgb(255,255,255); fill-rule: nonzero; opacity: 0.61;" vector-effect="non-scaling-stroke"  transform=" translate(-199.73, -473.52)" d="M 200.908 473.52 C 200.908 475.079 198.54399999999998 475.079 198.54399999999998 473.52 C 198.545 471.962 200.908 471.962 200.908 473.52 z" stroke-linecap="round" />
</g>
<g transform="matrix(3.11 0 0 3.11 924.23 1046.3)"  >
<path style="stroke: none; stroke-width: 1; stroke-dasharray: none; stroke-linecap: butt; stroke-dashoffset: 0; stroke-linejoin: miter; stroke-miterlimit: 4; fill: rgb(255,255,255); fill-rule: nonzero; opacity: 0.61;" vector-effect="non-scaling-stroke"  transform=" translate(-319, -470.41)" d="M 322.71 473.409 C 321.775 474.328 320.791 474.68899999999996 319.59299999999996 474.68899999999996 C 317.24699999999996 474.68899999999996 315.29299999999995 473.27799999999996 315.29299999999995 470.407 C 315.29299999999995 467.536 317.2459999999999 466.123 319.59299999999996 466.123 C 320.74199999999996 466.123 321.628 466.452 322.51399999999995 467.322 L 321.24999999999994 468.651 C 320.77399999999994 468.223 320.18399999999997 468.011 319.62699999999995 468.011 C 318.28099999999995 468.011 317.29699999999997 468.99600000000004 317.29699999999997 470.40700000000004 C 317.29699999999997 471.949 318.347 472.76900000000006 319.594 472.76900000000006 C 320.234 472.76900000000006 320.87399999999997 472.58900000000006 321.366 472.09700000000004 L 322.71 473.409 z" stroke-linecap="round" />
</g>
<g transform="matrix(3.11 0 0 3.11 950.95 1046.5)"  >
<path style="stroke: none; stroke-width: 1; stroke-dasharray: none; stroke-linecap: butt; stroke-dashoffset: 0; stroke-linejoin: miter; stroke-miterlimit: 4; fill: rgb(255,255,255); fill-rule: nonzero; opacity: 0.61;" vector-effect="non-scaling-stroke"  transform=" translate(-327.6, -470.47)" d="M 331.805 470.472 C 331.805 472.80199999999996 330.214 474.68899999999996 327.588 474.68899999999996 C 324.96200000000005 474.68899999999996 323.387 472.80199999999996 323.387 470.472 C 323.387 468.15799999999996 324.996 466.255 327.572 466.255 C 330.149 466.255 331.805 468.158 331.805 470.472 z M 325.389 470.472 C 325.389 471.703 326.128 472.852 327.588 472.852 C 329.048 472.852 329.78700000000003 471.703 329.78700000000003 470.472 C 329.78700000000003 469.257 328.93300000000005 468.07599999999996 327.588 468.07599999999996 C 326.144 468.077 325.389 469.258 325.389 470.472 z" stroke-linecap="round" />
</g>
<g transform="matrix(3.11 0 0 3.11 988.07 1046.82)"  >
<path style="stroke: none; stroke-width: 1; stroke-dasharray: none; stroke-linecap: butt; stroke-dashoffset: 0; stroke-linejoin: miter; stroke-miterlimit: 4; fill: rgb(255,255,255); fill-rule: nonzero; opacity: 0.61;" vector-effect="non-scaling-stroke"  transform=" translate(-339.52, -470.57)" d="M 338.572 474.689 L 338.572 470.357 C 338.572 469.28900000000004 338.013 468.322 336.914 468.322 C 335.832 468.322 335.192 469.289 335.192 470.357 L 335.192 474.689 L 333.189 474.689 L 333.189 466.582 L 335.04400000000004 466.582 L 335.19200000000006 467.567 C 335.61800000000005 466.747 336.5540000000001 466.451 337.32500000000005 466.451 C 338.29400000000004 466.451 339.26200000000006 466.845 339.72100000000006 467.961 C 340.4440000000001 466.812 341.3790000000001 466.483 342.4290000000001 466.483 C 344.7260000000001 466.483 345.8590000000001 467.895 345.8590000000001 470.323 L 345.8590000000001 474.688 L 343.8560000000001 474.688 L 343.8560000000001 470.323 C 343.8560000000001 469.257 343.4140000000001 468.35299999999995 342.3300000000001 468.35299999999995 C 341.2480000000001 468.35299999999995 340.5740000000001 469.28799999999995 340.5740000000001 470.35599999999994 L 340.5740000000001 474.68799999999993 L 338.572 474.68799999999993 z" stroke-linecap="round" />
</g>
<g transform="matrix(3.11 0 0 3.11 425.26 1078.79)"  >
<path style="stroke: none; stroke-width: 1; stroke-dasharray: none; stroke-linecap: butt; stroke-dashoffset: 0; stroke-linejoin: miter; stroke-miterlimit: 4; fill: rgb(255,255,255); fill-rule: nonzero; opacity: 0.61;" vector-effect="non-scaling-stroke"  transform=" translate(-158.62, -480.85)" d="M 156.756 478.878 L 158.363 478.878 C 159.626 478.878 160.477 479.69 160.477 480.852 C 160.477 482.013 159.626 482.825 158.363 482.825 L 156.756 482.825 L 156.756 478.878 z M 158.34 482.464 C 159.389 482.464 160.065 481.799 160.065 480.852 C 160.065 479.905 159.388 479.239 158.34 479.239 L 157.173 479.239 L 157.173 482.464 L 158.34 482.464 z" stroke-linecap="round" />
</g>
<g transform="matrix(3.11 0 0 3.11 452 1078.8)"  >
<path style="stroke: none; stroke-width: 1; stroke-dasharray: none; stroke-linecap: butt; stroke-dashoffset: 0; stroke-linejoin: miter; stroke-miterlimit: 4; fill: rgb(255,255,255); fill-rule: nonzero; opacity: 0.61;" vector-effect="non-scaling-stroke"  transform=" translate(-167.21, -480.85)" d="M 165.139 480.851 C 165.139 479.701 166.018 478.844 167.214 478.844 C 168.398 478.844 169.283 479.695 169.283 480.851 C 169.283 482.007 168.398 482.858 167.214 482.858 C 166.019 482.858 165.139 482.002 165.139 480.851 z M 168.866 480.851 C 168.866 479.909 168.161 479.216 167.21400000000003 479.216 C 166.26100000000002 479.216 165.55100000000002 479.909 165.55100000000002 480.851 C 165.55100000000002 481.792 166.26100000000002 482.486 167.21400000000003 482.486 C 168.162 482.486 168.866 481.793 168.866 480.851 z" stroke-linecap="round" />
</g>
<g transform="matrix(3.11 0 0 3.11 481.42 1078.79)"  >
<path style="stroke: none; stroke-width: 1; stroke-dasharray: none; stroke-linecap: butt; stroke-dashoffset: 0; stroke-linejoin: miter; stroke-miterlimit: 4; fill: rgb(255,255,255); fill-rule: nonzero; opacity: 0.61;" vector-effect="non-scaling-stroke"  transform=" translate(-176.67, -480.85)" d="M 179.596 478.878 L 178.26500000000001 482.825 L 177.82500000000002 482.825 L 176.669 479.459 L 175.508 482.825 L 175.074 482.825 L 173.74300000000002 478.878 L 174.17200000000003 478.878 L 175.31100000000004 482.272 L 176.48900000000003 478.878 L 176.87800000000004 478.878 L 178.03900000000004 482.289 L 179.19500000000005 478.878 L 179.596 478.878 z" stroke-linecap="round" />
</g>
<g transform="matrix(3.11 0 0 3.11 510.71 1078.79)"  >
<path style="stroke: none; stroke-width: 1; stroke-dasharray: none; stroke-linecap: butt; stroke-dashoffset: 0; stroke-linejoin: miter; stroke-miterlimit: 4; fill: rgb(255,255,255); fill-rule: nonzero; opacity: 0.61;" vector-effect="non-scaling-stroke"  transform=" translate(-186.08, -480.85)" d="M 187.731 478.878 L 187.731 482.825 L 187.387 482.825 L 184.85 479.623 L 184.85 482.825 L 184.433 482.825 L 184.433 478.878 L 184.777 478.878 L 187.32 482.08099999999996 L 187.32 478.878 L 187.731 478.878 z" stroke-linecap="round" />
</g>
<g transform="matrix(3.11 0 0 3.11 536.6 1078.79)"  >
<path style="stroke: none; stroke-width: 1; stroke-dasharray: none; stroke-linecap: butt; stroke-dashoffset: 0; stroke-linejoin: miter; stroke-miterlimit: 4; fill: rgb(255,255,255); fill-rule: nonzero; opacity: 0.61;" vector-effect="non-scaling-stroke"  transform=" translate(-194.41, -480.85)" d="M 193.093 478.878 L 193.51 478.878 L 193.51 482.464 L 195.72 482.464 L 195.72 482.825 L 193.093 482.825 L 193.093 478.878 z" stroke-linecap="round" />
</g>
<g transform="matrix(3.11 0 0 3.11 560.63 1078.8)"  >
<path style="stroke: none; stroke-width: 1; stroke-dasharray: none; stroke-linecap: butt; stroke-dashoffset: 0; stroke-linejoin: miter; stroke-miterlimit: 4; fill: rgb(255,255,255); fill-rule: nonzero; opacity: 0.61;" vector-effect="non-scaling-stroke"  transform=" translate(-202.13, -480.85)" d="M 200.061 480.851 C 200.061 479.701 200.94 478.844 202.136 478.844 C 203.32 478.844 204.20499999999998 479.695 204.20499999999998 480.851 C 204.20499999999998 482.007 203.32 482.858 202.136 482.858 C 200.941 482.858 200.061 482.002 200.061 480.851 z M 203.788 480.851 C 203.788 479.909 203.083 479.216 202.13600000000002 479.216 C 201.18300000000002 479.216 200.473 479.909 200.473 480.851 C 200.473 481.792 201.18300000000002 482.486 202.13600000000002 482.486 C 203.083 482.486 203.788 481.793 203.788 480.851 z" stroke-linecap="round" />
</g>
<g transform="matrix(3.11 0 0 3.11 586.8 1078.79)"  >
<path style="stroke: none; stroke-width: 1; stroke-dasharray: none; stroke-linecap: butt; stroke-dashoffset: 0; stroke-linejoin: miter; stroke-miterlimit: 4; fill: rgb(255,255,255); fill-rule: nonzero; opacity: 0.61;" vector-effect="non-scaling-stroke"  transform=" translate(-210.54, -480.85)" d="M 211.636 481.77 L 209.43699999999998 481.77 L 208.963 482.82399999999996 L 208.529 482.82399999999996 L 210.333 478.87699999999995 L 210.745 478.87699999999995 L 212.549 482.82399999999996 L 212.109 482.82399999999996 L 211.636 481.77 z M 211.484 481.432 L 210.537 479.312 L 209.59 481.432 L 211.484 481.432 z" stroke-linecap="round" />
</g>
<g transform="matrix(3.11 0 0 3.11 613.55 1078.79)"  >
<path style="stroke: none; stroke-width: 1; stroke-dasharray: none; stroke-linecap: butt; stroke-dashoffset: 0; stroke-linejoin: miter; stroke-miterlimit: 4; fill: rgb(255,255,255); fill-rule: nonzero; opacity: 0.61;" vector-effect="non-scaling-stroke"  transform=" translate(-219.14, -480.85)" d="M 217.28 478.878 L 218.887 478.878 C 220.15 478.878 221.001 479.69 221.001 480.852 C 221.001 482.013 220.15 482.825 218.887 482.825 L 217.28 482.825 L 217.28 478.878 z M 218.864 482.464 C 219.913 482.464 220.589 481.799 220.589 480.852 C 220.589 479.905 219.912 479.239 218.864 479.239 L 217.697 479.239 L 217.697 482.464 L 218.864 482.464 z" stroke-linecap="round" />
</g>
<g transform="matrix(3.11 0 0 3.11 656.49 1078.79)"  >
<path style="stroke: none; stroke-width: 1; stroke-dasharray: none; stroke-linecap: butt; stroke-dashoffset: 0; stroke-linejoin: miter; stroke-miterlimit: 4; fill: rgb(255,255,255); fill-rule: nonzero; opacity: 0.61;" vector-effect="non-scaling-stroke"  transform=" translate(-232.94, -480.85)" d="M 234.041 481.77 L 231.84199999999998 481.77 L 231.368 482.82399999999996 L 230.934 482.82399999999996 L 232.738 478.87699999999995 L 233.15 478.87699999999995 L 234.954 482.82399999999996 L 234.514 482.82399999999996 L 234.041 481.77 z M 233.889 481.432 L 232.942 479.312 L 231.995 481.432 L 233.889 481.432 z" stroke-linecap="round" />
</g>
<g transform="matrix(3.11 0 0 3.11 681.56 1078.79)"  >
<path style="stroke: none; stroke-width: 1; stroke-dasharray: none; stroke-linecap: butt; stroke-dashoffset: 0; stroke-linejoin: miter; stroke-miterlimit: 4; fill: rgb(255,255,255); fill-rule: nonzero; opacity: 0.61;" vector-effect="non-scaling-stroke"  transform=" translate(-241, -480.85)" d="M 239.685 478.878 L 240.102 478.878 L 240.102 482.464 L 242.312 482.464 L 242.312 482.825 L 239.685 482.825 L 239.685 478.878 z" stroke-linecap="round" />
</g>
<g transform="matrix(3.11 0 0 3.11 704.56 1078.79)"  >
<path style="stroke: none; stroke-width: 1; stroke-dasharray: none; stroke-linecap: butt; stroke-dashoffset: 0; stroke-linejoin: miter; stroke-miterlimit: 4; fill: rgb(255,255,255); fill-rule: nonzero; opacity: 0.61;" vector-effect="non-scaling-stroke"  transform=" translate(-248.4, -480.85)" d="M 247.082 478.878 L 247.499 478.878 L 247.499 482.464 L 249.709 482.464 L 249.709 482.825 L 247.082 482.825 L 247.082 478.878 z" stroke-linecap="round" />
</g>
<g transform="matrix(3.11 0 0 3.11 744.98 1078.81)"  >
<path style="stroke: none; stroke-width: 1; stroke-dasharray: none; stroke-linecap: butt; stroke-dashoffset: 0; stroke-linejoin: miter; stroke-miterlimit: 4; fill: rgb(255,255,255); fill-rule: nonzero; opacity: 0.61;" vector-effect="non-scaling-stroke"  transform=" translate(-261.39, -480.85)" d="M 260.449 479.239 L 260.449 480.78999999999996 L 262.49 480.78999999999996 L 262.49 481.15099999999995 L 260.449 481.15099999999995 L 260.449 482.82599999999996 L 260.03200000000004 482.82599999999996 L 260.03200000000004 478.87899999999996 L 262.73800000000006 478.87899999999996 L 262.73800000000006 479.23999999999995 L 260.449 479.23999999999995 z" stroke-linecap="round" />
</g>
<g transform="matrix(3.11 0 0 3.11 765.2 1078.79)"  >
<path style="stroke: none; stroke-width: 1; stroke-dasharray: none; stroke-linecap: butt; stroke-dashoffset: 0; stroke-linejoin: miter; stroke-miterlimit: 4; fill: rgb(255,255,255); fill-rule: nonzero; opacity: 0.61;" vector-effect="non-scaling-stroke"  transform=" translate(-267.89, -480.85)" d="M 267.678 478.878 L 268.09499999999997 478.878 L 268.09499999999997 482.825 L 267.678 482.825 L 267.678 478.878 z" stroke-linecap="round" />
</g>
<g transform="matrix(3.11 0 0 3.11 786.61 1078.79)"  >
<path style="stroke: none; stroke-width: 1; stroke-dasharray: none; stroke-linecap: butt; stroke-dashoffset: 0; stroke-linejoin: miter; stroke-miterlimit: 4; fill: rgb(255,255,255); fill-rule: nonzero; opacity: 0.61;" vector-effect="non-scaling-stroke"  transform=" translate(-274.77, -480.85)" d="M 273.456 478.878 L 273.873 478.878 L 273.873 482.464 L 276.08299999999997 482.464 L 276.08299999999997 482.825 L 273.45599999999996 482.825 L 273.45599999999996 478.878 z" stroke-linecap="round" />
</g>
<g transform="matrix(3.11 0 0 3.11 809.89 1078.79)"  >
<path style="stroke: none; stroke-width: 1; stroke-dasharray: none; stroke-linecap: butt; stroke-dashoffset: 0; stroke-linejoin: miter; stroke-miterlimit: 4; fill: rgb(255,255,255); fill-rule: nonzero; opacity: 0.61;" vector-effect="non-scaling-stroke"  transform=" translate(-282.25, -480.85)" d="M 283.644 482.464 L 283.644 482.825 L 280.853 482.825 L 280.853 478.878 L 283.559 478.878 L 283.559 479.239 L 281.27000000000004 479.239 L 281.27000000000004 480.643 L 283.31100000000004 480.643 L 283.31100000000004 480.998 L 281.27000000000004 480.998 L 281.27000000000004 482.464 L 283.644 482.464 z" stroke-linecap="round" />
</g>
<g transform="matrix(3.11 0 0 3.11 851.45 1078.81)"  >
<path style="stroke: none; stroke-width: 1; stroke-dasharray: none; stroke-linecap: butt; stroke-dashoffset: 0; stroke-linejoin: miter; stroke-miterlimit: 4; fill: rgb(255,255,255); fill-rule: nonzero; opacity: 0.61;" vector-effect="non-scaling-stroke"  transform=" translate(-295.61, -480.85)" d="M 294.672 479.239 L 294.672 480.78999999999996 L 296.713 480.78999999999996 L 296.713 481.15099999999995 L 294.672 481.15099999999995 L 294.672 482.82599999999996 L 294.25500000000005 482.82599999999996 L 294.25500000000005 478.87899999999996 L 296.96100000000007 478.87899999999996 L 296.96100000000007 479.23999999999995 L 294.672 479.23999999999995 z" stroke-linecap="round" />
</g>
<g transform="matrix(3.11 0 0 3.11 876.23 1078.8)"  >
<path style="stroke: none; stroke-width: 1; stroke-dasharray: none; stroke-linecap: butt; stroke-dashoffset: 0; stroke-linejoin: miter; stroke-miterlimit: 4; fill: rgb(255,255,255); fill-rule: nonzero; opacity: 0.61;" vector-effect="non-scaling-stroke"  transform=" translate(-303.57, -480.85)" d="M 301.5 480.851 C 301.5 479.701 302.379 478.844 303.575 478.844 C 304.759 478.844 305.644 479.695 305.644 480.851 C 305.644 482.007 304.759 482.858 303.575 482.858 C 302.379 482.858 301.5 482.002 301.5 480.851 z M 305.226 480.851 C 305.226 479.909 304.521 479.216 303.574 479.216 C 302.62100000000004 479.216 301.911 479.909 301.911 480.851 C 301.911 481.792 302.621 482.486 303.574 482.486 C 304.522 482.486 305.226 481.793 305.226 480.851 z" stroke-linecap="round" />
</g>
<g transform="matrix(3.11 0 0 3.11 903.18 1078.79)"  >
<path style="stroke: none; stroke-width: 1; stroke-dasharray: none; stroke-linecap: butt; stroke-dashoffset: 0; stroke-linejoin: miter; stroke-miterlimit: 4; fill: rgb(255,255,255); fill-rule: nonzero; opacity: 0.61;" vector-effect="non-scaling-stroke"  transform=" translate(-312.23, -480.85)" d="M 313.351 482.825 L 312.449 481.556 C 312.34700000000004 481.567 312.24600000000004 481.573 312.13300000000004 481.573 L 311.07300000000004 481.573 L 311.07300000000004 482.825 L 310.65600000000006 482.825 L 310.65600000000006 478.878 L 312.13300000000004 478.878 C 313.13700000000006 478.878 313.74600000000004 479.385 313.74600000000004 480.231 C 313.74600000000004 480.851 313.41900000000004 481.28499999999997 312.84400000000005 481.471 L 313.80800000000005 482.824 L 313.351 482.824 z M 313.328 480.231 C 313.328 479.599 312.911 479.239 312.121 479.239 L 311.073 479.239 L 311.073 481.21799999999996 L 312.121 481.21799999999996 C 312.911 481.218 313.328 480.851 313.328 480.231 z" stroke-linecap="round" />
</g>
<g transform="matrix(3.11 0 0 3.11 929.99 1078.79)"  >
<path style="stroke: none; stroke-width: 1; stroke-dasharray: none; stroke-linecap: butt; stroke-dashoffset: 0; stroke-linejoin: miter; stroke-miterlimit: 4; fill: rgb(255,255,255); fill-rule: nonzero; opacity: 0.61;" vector-effect="non-scaling-stroke"  transform=" translate(-320.86, -480.85)" d="M 322.907 478.878 L 322.907 482.825 L 322.507 482.825 L 322.507 479.667 L 320.956 482.323 L 320.759 482.323 L 319.208 479.68399999999997 L 319.208 482.82399999999996 L 318.80800000000005 482.82399999999996 L 318.80800000000005 478.87699999999995 L 319.15200000000004 478.87699999999995 L 320.86600000000004 481.80299999999994 L 322.56300000000005 478.87699999999995 L 322.907 478.87699999999995 z" stroke-linecap="round" />
</g>
<g transform="matrix(3.11 0 0 3.11 957.35 1078.79)"  >
<path style="stroke: none; stroke-width: 1; stroke-dasharray: none; stroke-linecap: butt; stroke-dashoffset: 0; stroke-linejoin: miter; stroke-miterlimit: 4; fill: rgb(255,255,255); fill-rule: nonzero; opacity: 0.61;" vector-effect="non-scaling-stroke"  transform=" translate(-329.65, -480.85)" d="M 330.744 481.77 L 328.545 481.77 L 328.072 482.82399999999996 L 327.638 482.82399999999996 L 329.44199999999995 478.87699999999995 L 329.85299999999995 478.87699999999995 L 331.6569999999999 482.82399999999996 L 331.2169999999999 482.82399999999996 L 330.744 481.77 z M 330.592 481.432 L 329.645 479.312 L 328.698 481.432 L 330.592 481.432 z" stroke-linecap="round" />
</g>
<g transform="matrix(3.11 0 0 3.11 980.74 1078.79)"  >
<path style="stroke: none; stroke-width: 1; stroke-dasharray: none; stroke-linecap: butt; stroke-dashoffset: 0; stroke-linejoin: miter; stroke-miterlimit: 4; fill: rgb(255,255,255); fill-rule: nonzero; opacity: 0.61;" vector-effect="non-scaling-stroke"  transform=" translate(-337.17, -480.85)" d="M 336.957 479.239 L 335.57 479.239 L 335.57 478.878 L 338.762 478.878 L 338.762 479.239 L 337.375 479.239 L 337.375 482.825 L 336.958 482.825 L 336.958 479.239 z" stroke-linecap="round" />
</g>
<g transform="matrix(3.11 0 0 3.11 1003.66 1078.8)"  >
<path style="stroke: none; stroke-width: 1; stroke-dasharray: none; stroke-linecap: butt; stroke-dashoffset: 0; stroke-linejoin: miter; stroke-miterlimit: 4; fill: rgb(255,255,255); fill-rule: nonzero; opacity: 0.61;" vector-effect="non-scaling-stroke"  transform=" translate(-344.53, -480.85)" d="M 343.063 482.346 L 343.227 482.025 C 343.50899999999996 482.301 344.01099999999997 482.50399999999996 344.529 482.50399999999996 C 345.268 482.50399999999996 345.589 482.19399999999996 345.589 481.80499999999995 C 345.589 480.7219999999999 343.159 481.388 343.159 479.92799999999994 C 343.159 479.3469999999999 343.61 478.8449999999999 344.614 478.8449999999999 C 345.06 478.8449999999999 345.522 478.9749999999999 345.83799999999997 479.19499999999994 L 345.69699999999995 479.52799999999996 C 345.3589999999999 479.30799999999994 344.96399999999994 479.20099999999996 344.6139999999999 479.20099999999996 C 343.89199999999994 479.20099999999996 343.5709999999999 479.522 343.5709999999999 479.917 C 343.5709999999999 481 346.0009999999999 480.34599999999995 346.0009999999999 481.78299999999996 C 346.0009999999999 482.364 345.53899999999993 482.85999999999996 344.52899999999994 482.85999999999996 C 343.937 482.858 343.356 482.65 343.063 482.346 z" stroke-linecap="round" />
</g>
<g transform="matrix(6.67 0 0 6.67 882.62 165.36)"  >
<path style="stroke: none; stroke-width: 1; stroke-dasharray: none; stroke-linecap: butt; stroke-dashoffset: 0; stroke-linejoin: miter; stroke-miterlimit: 4; fill: rgb(247,193,24); fill-rule: nonzero; opacity: 1;" vector-effect="non-scaling-stroke"  transform=" translate(-155.54, -160.04)" d="M 154.71 136.792 L 160.967 136.792 C 166.228 137.298 171.45800000000003 138.498 176.24300000000002 140.766 C 183.97100000000003 144.409 189.93000000000004 151.069 193.889 158.51999999999998 C 197.92600000000002 166.164 199.98600000000002 174.72099999999998 200.73000000000002 183.29 C 189.15800000000002 174.106 174.12900000000002 169.94799999999998 159.46500000000003 170.26399999999998 C 142.81100000000004 170.82899999999998 126.31600000000003 173.908 110.34800000000004 178.56699999999998 C 114.21800000000005 168.49399999999997 119.61500000000004 158.88599999999997 127.06800000000004 151.00599999999997 C 134.176 143.19 144.084 137.704 154.71 136.792 z" stroke-linecap="round" />
</g>
<g transform="matrix(6.67 0 0 6.67 871.77 341.02)"  >
<path style="stroke: none; stroke-width: 1; stroke-dasharray: none; stroke-linecap: butt; stroke-dashoffset: 0; stroke-linejoin: miter; stroke-miterlimit: 4; fill: rgb(247,193,24); fill-rule: nonzero; opacity: 1;" vector-effect="non-scaling-stroke"  transform=" translate(-153.91, -186.36)" d="M 144.975 176.995 C 153.98499999999999 175.875 163.177 175.329 172.188 176.773 C 177.38 177.582 182.445 179.149 187.206 181.371 C 192.167 183.727 196.563 187.086 200.697 190.662 C 200.588 192.73000000000002 200.31300000000002 194.785 199.949 196.82 C 197.681 195.475 195.92600000000002 193.475 193.87 191.85899999999998 C 183.871 183.70499999999998 170.967 179.433 158.118 179.20299999999997 C 144.055 178.86399999999998 130.07299999999998 181.23899999999998 116.482 184.67 C 113.349 185.452 110.329 186.648 107.132 187.171 C 107.72500000000001 186.313 108.10600000000001 185.06699999999998 109.22800000000001 184.757 C 120.874 181.108 132.85 178.455 144.975 176.995 z" stroke-linecap="round" />
</g>
<g transform="matrix(6.67 0 0 6.67 857.87 407.22)"  >
<path style="stroke: none; stroke-width: 1; stroke-dasharray: none; stroke-linecap: butt; stroke-dashoffset: 0; stroke-linejoin: miter; stroke-miterlimit: 4; fill: rgb(247,193,24); fill-rule: nonzero; opacity: 1;" vector-effect="non-scaling-stroke"  transform=" translate(-151.83, -196.28)" d="M 107.834 192.361 C 119.86 188.36599999999999 132.34300000000002 185.72299999999998 144.957 184.486 C 152.5 184.183 160.13 183.70499999999998 167.60399999999998 185.028 C 179.432 187.069 190.43399999999997 193.422 198.064 202.67399999999998 C 197.311 204.58299999999997 196.564 206.498 195.82299999999998 208.41299999999998 C 192.56599999999997 204.88699999999997 189.22599999999997 201.378 185.31599999999997 198.55999999999997 C 176.49799999999996 192.18899999999996 165.77099999999996 188.79899999999998 154.96399999999997 188.03599999999997 C 147.37399999999997 187.40399999999997 139.77699999999996 188.28499999999997 132.26499999999996 189.28999999999996 C 123.21099999999996 190.56399999999996 114.34899999999996 192.90799999999996 105.62799999999996 195.60799999999998 C 105.416 194.095 106.395 192.763 107.834 192.361 z" stroke-linecap="round" />
</g>
<g transform="matrix(6.67 0 0 6.67 844.13 461.7)"  >
<path style="stroke: none; stroke-width: 1; stroke-dasharray: none; stroke-linecap: butt; stroke-dashoffset: 0; stroke-linejoin: miter; stroke-miterlimit: 4; fill: rgb(247,193,24); fill-rule: nonzero; opacity: 1;" vector-effect="non-scaling-stroke"  transform=" translate(-149.77, -204.44)" d="M 138.194 192.771 C 149.617 191.35799999999998 161.563 191.837 172.34099999999998 196.16299999999998 C 180.356 199.34599999999998 187.41899999999998 204.72799999999998 192.80999999999997 211.415 C 193.72499999999997 213.527 192.07899999999998 215.911 190.16499999999996 216.827 C 189.56399999999996 216.376 189.09199999999996 215.785 188.59199999999996 215.234 C 180.33999999999995 206.042 168.95199999999994 199.729 156.73499999999996 197.751 C 149.55099999999996 196.541 142.22199999999995 196.65800000000002 134.98299999999995 197.154 C 125.62299999999995 198.071 116.30999999999995 199.832 107.44899999999996 203.015 C 107.13199999999996 201.95399999999998 106.80099999999996 200.902 106.47899999999996 199.85 C 116.759 196.37 127.4 193.919 138.194 192.771 z" stroke-linecap="round" />
</g>
<g transform="matrix(6.67 0 0 6.67 836.49 514.43)"  >
<path style="stroke: none; stroke-width: 1; stroke-dasharray: none; stroke-linecap: butt; stroke-dashoffset: 0; stroke-linejoin: miter; stroke-miterlimit: 4; fill: rgb(247,193,24); fill-rule: nonzero; opacity: 1;" vector-effect="non-scaling-stroke"  transform=" translate(-148.63, -212.34)" d="M 109.103 206.024 C 122.273 201.916 136.131 199.505 149.964 200.457 C 164.711 201.292 179.268 208.408 188.155 220.315 C 186.793 221.692 185.435 223.069 184.066 224.437 C 179.621 219.244 174.193 214.865 168.062 211.803 C 157.024 206.4 144.431 204.809 132.26000000000002 205.708 C 125.18900000000002 206.209 118.19300000000001 207.514 111.34400000000002 209.311 C 110.591 208.218 109.844 207.121 109.103 206.024 z" stroke-linecap="round" />
</g>
<g transform="matrix(6.67 0 0 6.67 829.2 557.75)"  >
<path style="stroke: none; stroke-width: 1; stroke-dasharray: none; stroke-linecap: butt; stroke-dashoffset: 0; stroke-linejoin: miter; stroke-miterlimit: 4; fill: rgb(247,193,24); fill-rule: nonzero; opacity: 1;" vector-effect="non-scaling-stroke"  transform=" translate(-147.54, -218.83)" d="M 113.761 211.609 C 126.442 208.43900000000002 139.826 206.999 152.744 209.586 C 162.696 211.55900000000003 172.372 216.05200000000002 179.426 223.452 C 180.24599999999998 224.356 181.37199999999999 225.24099999999999 181.31099999999998 226.59 C 179.76099999999997 227.647 178.12699999999998 228.573 176.45199999999997 229.417 C 169.05699999999996 221.068 158.07299999999998 216.918 147.25599999999997 215.30700000000002 C 142.00799999999998 214.639 136.71899999999997 213.93900000000002 131.41399999999996 214.19500000000002 C 126.88699999999996 214.336 122.39999999999996 214.99 117.92299999999996 215.63600000000002 C 116.453 214.386 115.001 213.095 113.761 211.609 z" stroke-linecap="round" />
</g>
<g transform="matrix(6.67 0 0 6.67 828.01 595.19)"  >
<path style="stroke: none; stroke-width: 1; stroke-dasharray: none; stroke-linecap: butt; stroke-dashoffset: 0; stroke-linejoin: miter; stroke-miterlimit: 4; fill: rgb(247,193,24); fill-rule: nonzero; opacity: 1;" vector-effect="non-scaling-stroke"  transform=" translate(-147.36, -224.44)" d="M 120.467 217.425 C 133.878 215.446 147.927 216.084 160.655 221.00500000000002 C 165.731 223.20400000000004 170.89600000000002 225.88500000000002 174.251 230.43300000000002 C 165.24200000000002 233.79600000000002 155.258 232.66400000000002 146.24200000000002 229.913 C 137.079 227.119 128.222 223.083 120.467 217.425 z" stroke-linecap="round" />
</g>
<g transform="matrix(6.67 0 0 6.67 181.38 652.28)"  >
<path style="stroke: none; stroke-width: 1; stroke-dasharray: none; stroke-linecap: butt; stroke-dashoffset: 0; stroke-linejoin: miter; stroke-miterlimit: 4; fill: rgb(188,205,49); fill-rule: nonzero; opacity: 1;" vector-effect="non-scaling-stroke"  transform=" translate(-50.48, -232.99)" d="M 39.938 205.447 C 50.540000000000006 198.525 63.191 194.276 75.951 194.89000000000001 C 71.96199999999999 198.73700000000002 67.64599999999999 202.34900000000002 64.54599999999999 206.991 C 59.37599999999999 214.35600000000002 56.925999999999995 223.57100000000003 57.794999999999995 232.524 C 58.937999999999995 246.061 63.61299999999999 259.039 69.589 271.156 C 57.336999999999996 268.704 45.524 263.201 36.492 254.487 C 30.240999999999996 248.527 25.846999999999998 240.463 24.999999999999996 231.81199999999998 L 24.999999999999996 227.30499999999998 C 25.947 218.066 32.463 210.457 39.938 205.447 z" stroke-linecap="round" />
</g>
<g transform="matrix(6.67 0 0 6.67 339.74 551.52)"  >
<path style="stroke: none; stroke-width: 1; stroke-dasharray: none; stroke-linecap: butt; stroke-dashoffset: 0; stroke-linejoin: miter; stroke-miterlimit: 4; fill: rgb(188,205,49); fill-rule: nonzero; opacity: 1;" vector-effect="non-scaling-stroke"  transform=" translate(-74.2, -217.9)" d="M 78.826 199.946 C 80.756 198.56 82.588 196.654 85.17299999999999 196.8 C 84.228 198.69500000000002 82.18199999999999 199.52800000000002 80.62099999999998 200.80900000000003 C 73.38299999999998 206.22400000000002 67.22299999999998 213.62300000000002 65.01699999999998 222.52800000000002 C 63.47199999999998 227.89700000000002 64.26799999999999 233.514 64.19099999999999 239.00300000000001 C 63.33099999999999 236.479 63.33799999999999 233.78400000000002 63.26999999999999 231.15200000000002 C 63.20299999999999 227.775 63.12299999999999 224.32100000000003 64.124 221.05100000000002 C 66.362 212.567 71.979 205.297 78.826 199.946 z" stroke-linecap="round" />
</g>
<g transform="matrix(6.67 0 0 6.67 382.28 668.11)"  >
<path style="stroke: none; stroke-width: 1; stroke-dasharray: none; stroke-linecap: butt; stroke-dashoffset: 0; stroke-linejoin: miter; stroke-miterlimit: 4; fill: rgb(188,205,49); fill-rule: nonzero; opacity: 1;" vector-effect="non-scaling-stroke"  transform=" translate(-80.58, -235.37)" d="M 76.548 211.193 C 80.393 206.727 85.225 203.24200000000002 90.24000000000001 200.19400000000002 C 90.86800000000001 200.36700000000002 91.49300000000001 200.54200000000003 92.123 200.71800000000002 C 92.183 200.97600000000003 92.304 201.485 92.36200000000001 201.74300000000002 C 83.905 206.48900000000003 75.93200000000002 213.13800000000003 72.23700000000001 222.336 C 69.75500000000001 228.012 69.778 234.387 70.584 240.42000000000002 C 72.087 248.931 75.113 257.135 79.10600000000001 264.788 C 80.087 266.65000000000003 81.17800000000001 268.482 81.703 270.54200000000003 C 79.82600000000001 269.01200000000006 78.973 266.672 77.906 264.581 C 72.798 254.16100000000003 69.01700000000001 242.84500000000003 68.79400000000001 231.156 C 68.752 223.822 71.712 216.666 76.548 211.193 z" stroke-linecap="round" />
</g>
<g transform="matrix(6.67 0 0 6.67 415.86 673.94)"  >
<path style="stroke: none; stroke-width: 1; stroke-dasharray: none; stroke-linecap: butt; stroke-dashoffset: 0; stroke-linejoin: miter; stroke-miterlimit: 4; fill: rgb(188,205,49); fill-rule: nonzero; opacity: 1;" vector-effect="non-scaling-stroke"  transform=" translate(-85.61, -236.24)" d="M 93.667 205.794 C 94.428 205.352 95.543 204.864 96.258 205.65800000000002 C 96.53399999999999 206.263 96.73299999999999 206.90500000000003 96.946 207.537 C 89.013 211.47 81.729 217.56900000000002 78.166 225.829 C 74.97999999999999 233.097 75.997 241.41500000000002 78.252 248.798 C 79.823 253.873 82.152 258.671 84.642 263.349 C 85.315 264.62399999999997 86.14699999999999 265.823 86.615 267.202 C 84.669 267.584 84.07799999999999 265.441 83.336 264.13 C 78.279 254.206 73.823 243.41899999999998 74.30799999999999 232.077 C 74.463 224.47299999999998 78.74 217.57 84.246 212.56799999999998 C 87.092 209.935 90.302 207.717 93.667 205.794 z" stroke-linecap="round" />
</g>
<g transform="matrix(6.67 0 0 6.67 443.54 678.33)"  >
<path style="stroke: none; stroke-width: 1; stroke-dasharray: none; stroke-linecap: butt; stroke-dashoffset: 0; stroke-linejoin: miter; stroke-miterlimit: 4; fill: rgb(188,205,49); fill-rule: nonzero; opacity: 1;" vector-effect="non-scaling-stroke"  transform=" translate(-89.75, -236.9)" d="M 86.948 218.901 C 90.30199999999999 215.407 94.369 212.661 98.67399999999999 210.467 C 99.074 211.592 99.467 212.72000000000003 99.856 213.84900000000002 C 93.586 217.35700000000003 87.61999999999999 222.085 84.43599999999999 228.67200000000003 C 81.97699999999999 233.62100000000004 81.77799999999999 239.39900000000003 82.94099999999999 244.72400000000002 C 84.314 251.09900000000002 87.39199999999998 256.933 90.615 262.545 C 89.904 262.807 89.198 263.06800000000004 88.49199999999999 263.331 C 83.93699999999998 254.76500000000001 79.55499999999999 245.56900000000002 79.65499999999999 235.65400000000002 C 79.586 229.345 82.58 223.339 86.948 218.901 z" stroke-linecap="round" />
</g>
<g transform="matrix(6.67 0 0 6.67 464.55 684.73)"  >
<path style="stroke: none; stroke-width: 1; stroke-dasharray: none; stroke-linecap: butt; stroke-dashoffset: 0; stroke-linejoin: miter; stroke-miterlimit: 4; fill: rgb(188,205,49); fill-rule: nonzero; opacity: 1;" vector-effect="non-scaling-stroke"  transform=" translate(-92.9, -237.86)" d="M 92.625 222.273 C 94.877 220.15699999999998 97.463 218.43099999999998 100.137 216.897 C 100.532 218.47199999999998 100.617 220.09799999999998 100.626 221.719 C 94.296 225.155 89.16300000000001 231.454 88.561 238.791 C 87.82300000000001 244.68699999999998 90.173 250.377 92.888 255.478 C 93.578 256.63800000000003 93.355 258.824 91.652 258.819 C 87.769 251.92100000000002 84.523 244.15900000000002 85.292 236.07600000000002 C 85.65 230.695 88.719 225.855 92.625 222.273 z" stroke-linecap="round" />
</g>
<g transform="matrix(6.67 0 0 6.67 482.64 692.41)"  >
<path style="stroke: none; stroke-width: 1; stroke-dasharray: none; stroke-linecap: butt; stroke-dashoffset: 0; stroke-linejoin: miter; stroke-miterlimit: 4; fill: rgb(188,205,49); fill-rule: nonzero; opacity: 1;" vector-effect="non-scaling-stroke"  transform=" translate(-95.61, -239.01)" d="M 91.281 235.72 C 92.676 230.722 96.45700000000001 226.785 100.68400000000001 223.958 C 100.20000000000002 234.216 98.36800000000001 244.462 94.65 254.061 C 91.375 248.652 89.384 241.956 91.281 235.72 z" stroke-linecap="round" />
</g>
<g transform="matrix(6.67 0 0 6.67 1266.58 873.49)"  >
<path style="stroke: none; stroke-width: 1; stroke-dasharray: none; stroke-linecap: butt; stroke-dashoffset: 0; stroke-linejoin: miter; stroke-miterlimit: 4; fill: rgb(237,132,34); fill-rule: nonzero; opacity: 1;" vector-effect="non-scaling-stroke"  transform=" translate(-213.07, -266.14)" d="M 216.209 229.015 C 217.251 229.047 218.41400000000002 228.75699999999998 219.393 229.04999999999998 C 221.393 240.32 221.339 251.856 220.498 263.24 C 219.316 277.214 215.88299999999998 291.243 208.605 303.361 C 207.434 303.022 206.26299999999998 302.669 205.094 302.313 C 206.311 299.329 208.326 296.769 209.661 293.844 C 216.092 280.71299999999997 218.015 265.926 218.28300000000002 251.463 C 218.568 243.919 217.229 236.461 216.209 229.015 z" stroke-linecap="round" />
</g>
<g transform="matrix(6.67 0 0 6.67 1432.73 877.39)"  >
<path style="stroke: none; stroke-width: 1; stroke-dasharray: none; stroke-linecap: butt; stroke-dashoffset: 0; stroke-linejoin: miter; stroke-miterlimit: 4; fill: rgb(237,132,34); fill-rule: nonzero; opacity: 1;" vector-effect="non-scaling-stroke"  transform=" translate(-237.97, -266.72)" d="M 224.903 228.576 C 234.683 229.322 244.852 231.73399999999998 252.5 238.19 C 258.55 243.093 261.637 251.017 261.397 258.694 C 261.143 265.029 259.985 271.346 257.803 277.31100000000004 C 254.71 285.79 249.255 293.634 241.585 298.581 C 233.61700000000002 303.683 223.859 305.339 214.523 304.76300000000003 C 216.005 300.889 218.221 297.34000000000003 219.571 293.41600000000005 C 225.022 278.898 226.74699999999999 263.26800000000003 226.676 247.85300000000007 C 226.745 241.387 225.841 234.962 224.903 228.576 z" stroke-linecap="round" />
</g>
<g transform="matrix(6.67 0 0 6.67 1213.19 864.18)"  >
<path style="stroke: none; stroke-width: 1; stroke-dasharray: none; stroke-linecap: butt; stroke-dashoffset: 0; stroke-linejoin: miter; stroke-miterlimit: 4; fill: rgb(237,132,34); fill-rule: nonzero; opacity: 1;" vector-effect="non-scaling-stroke"  transform=" translate(-205.07, -264.75)" d="M 207.1 230.817 C 208.47 230.505 209.845 230.197 211.221 229.89100000000002 C 214.12 243.32800000000003 214.001 257.29400000000004 211.788 270.82000000000005 C 210.20100000000002 281.03700000000003 206.598 291.00800000000004 200.78300000000002 299.6 C 199.24800000000002 299.112 197.92600000000002 298.19500000000005 196.71800000000002 297.163 C 204.86900000000003 286.894 208.43500000000003 273.781 209.49900000000002 260.918 C 210.352 250.86 209.999 240.547 207.1 230.817 z" stroke-linecap="round" />
</g>
<g transform="matrix(6.67 0 0 6.67 1165.37 854.86)"  >
<path style="stroke: none; stroke-width: 1; stroke-dasharray: none; stroke-linecap: butt; stroke-dashoffset: 0; stroke-linejoin: miter; stroke-miterlimit: 4; fill: rgb(237,132,34); fill-rule: nonzero; opacity: 1;" vector-effect="non-scaling-stroke"  transform=" translate(-197.91, -263.35)" d="M 198.696 233.422 C 200.187 232.857 201.68 232.049 203.323 232.266 C 206.809 245.39999999999998 206.239 259.28499999999997 203.576 272.514 C 201.74599999999998 280.398 198.719 288.204 193.462 294.468 C 192.29899999999998 293.10400000000004 191.15699999999998 291.731 190.057 290.326 C 197.71699999999998 281.15200000000004 200.814 269.047 201.33999999999997 257.321 C 201.871 249.284 201.146 241.12 198.696 233.422 z" stroke-linecap="round" />
</g>
<g transform="matrix(6.67 0 0 6.67 1123.13 840.11)"  >
<path style="stroke: none; stroke-width: 1; stroke-dasharray: none; stroke-linecap: butt; stroke-dashoffset: 0; stroke-linejoin: miter; stroke-miterlimit: 4; fill: rgb(237,132,34); fill-rule: nonzero; opacity: 1;" vector-effect="non-scaling-stroke"  transform=" translate(-191.58, -261.14)" d="M 190.858 237.066 C 192.40800000000002 236.308 193.889 235.427 195.453 234.705 C 197.537 240.954 198.26500000000001 247.592 198.026 254.155 C 197.92600000000002 265.896 195.199 278.022 188.061 287.572 C 187.032 285.961 185.51000000000002 284.552 185.136 282.616 C 184.945 281.80899999999997 185.356 281.07599999999996 185.79399999999998 280.435 C 190.98299999999998 272.593 193.19699999999997 263.073 193.136 253.75 C 193.146 248.114 192.244 242.52 190.858 237.066 z" stroke-linecap="round" />
</g>
<g transform="matrix(6.67 0 0 6.67 1083.63 822.84)"  >
<path style="stroke: none; stroke-width: 1; stroke-dasharray: none; stroke-linecap: butt; stroke-dashoffset: 0; stroke-linejoin: miter; stroke-miterlimit: 4; fill: rgb(237,132,34); fill-rule: nonzero; opacity: 1;" vector-effect="non-scaling-stroke"  transform=" translate(-185.66, -258.55)" d="M 183.389 242.836 C 184.892 241.27800000000002 186.535 239.84300000000002 188.428 238.782 C 191.026 248.738 191.326 259.476 188.153 269.33500000000004 C 187.101 272.446 185.808 275.51300000000003 183.97299999999998 278.249 C 183.68699999999998 278.267 183.12699999999998 278.30400000000003 182.84199999999998 278.322 C 181.783 275.807 180.00699999999998 272.949 181.355 270.2 C 185.48 261.723 185.409 251.862 183.389 242.836 z" stroke-linecap="round" />
</g>
<g transform="matrix(6.67 0 0 6.67 1047.37 812.05)"  >
<path style="stroke: none; stroke-width: 1; stroke-dasharray: none; stroke-linecap: butt; stroke-dashoffset: 0; stroke-linejoin: miter; stroke-miterlimit: 4; fill: rgb(237,132,34); fill-rule: nonzero; opacity: 1;" vector-effect="non-scaling-stroke"  transform=" translate(-180.23, -256.93)" d="M 178.027 253.285 C 178.48399999999998 250.164 179.753 247.171 181.71599999999998 244.696 C 183.433 252.80599999999998 183.05899999999997 261.515 179.72199999999998 269.173 C 178.277 264.03 177.194 258.626 178.027 253.285 z" stroke-linecap="round" />
</g>
<g transform="matrix(6.67 0 0 6.67 767.33 936.1)"  >
<path style="stroke: none; stroke-width: 1; stroke-dasharray: none; stroke-linecap: butt; stroke-dashoffset: 0; stroke-linejoin: miter; stroke-miterlimit: 4; fill: rgb(25,157,167); fill-rule: nonzero; opacity: 1;" vector-effect="non-scaling-stroke"  transform=" translate(-138.27, -275.52)" d="M 108.665 270.208 C 116.60900000000001 267.809 124.903 265.778 133.272 266.581 C 145.79 267.648 158.486 271.77500000000003 167.869 280.37800000000004 C 150.582 287.72600000000006 129.772 285.34600000000006 114.219 274.98300000000006 C 112.221 273.586 109.882 272.424 108.665 270.208 z" stroke-linecap="round" />
</g>
<g transform="matrix(6.67 0 0 6.67 767.2 981.99)"  >
<path style="stroke: none; stroke-width: 1; stroke-dasharray: none; stroke-linecap: butt; stroke-dashoffset: 0; stroke-linejoin: miter; stroke-miterlimit: 4; fill: rgb(25,157,167); fill-rule: nonzero; opacity: 1;" vector-effect="non-scaling-stroke"  transform=" translate(-138.25, -282.4)" d="M 102.633 272.686 C 103.767 272.24899999999997 104.908 271.815 106.03699999999999 271.35499999999996 C 116.64599999999999 280.53299999999996 130.355 286.57599999999996 144.522 286.60299999999995 C 152.989 286.79999999999995 161.66899999999998 285.703 169.37699999999998 282.00999999999993 C 171.02299999999997 283.79799999999994 172.53699999999998 285.7029999999999 173.85899999999998 287.73999999999995 C 165.10999999999999 292.602 154.832 293.85699999999997 144.96599999999998 293.32899999999995 C 131.575 292.99499999999995 118.79499999999999 287.13999999999993 108.56499999999997 278.74399999999997 C 106.43 276.894 104.08 275.164 102.633 272.686 z" stroke-linecap="round" />
</g>
<g transform="matrix(6.67 0 0 6.67 761.46 1021.94)"  >
<path style="stroke: none; stroke-width: 1; stroke-dasharray: none; stroke-linecap: butt; stroke-dashoffset: 0; stroke-linejoin: miter; stroke-miterlimit: 4; fill: rgb(25,157,167); fill-rule: nonzero; opacity: 1;" vector-effect="non-scaling-stroke"  transform=" translate(-137.39, -288.38)" d="M 97.033 275.52 C 97.96000000000001 275.078 98.897 274.65799999999996 99.843 274.256 C 109.828 285.061 123.196 292.94199999999995 137.776 295.49499999999995 C 150.446 297.59 163.81 295.95199999999994 175.37 290.28399999999993 C 176.199 292.2459999999999 176.99200000000002 294.21799999999996 177.739 296.20899999999995 C 166.668 302.143 153.60500000000002 303.51499999999993 141.277 301.85299999999995 C 123.771 299.271 108.315 288.777 97.033 275.52 z" stroke-linecap="round" />
</g>
<g transform="matrix(6.67 0 0 6.67 753.52 1060.78)"  >
<path style="stroke: none; stroke-width: 1; stroke-dasharray: none; stroke-linecap: butt; stroke-dashoffset: 0; stroke-linejoin: miter; stroke-miterlimit: 4; fill: rgb(25,157,167); fill-rule: nonzero; opacity: 1;" vector-effect="non-scaling-stroke"  transform=" translate(-136.2, -294.2)" d="M 93.501 276.898 C 95.537 278.83500000000004 97.38600000000001 280.958 99.308 283.00300000000004 C 109.89500000000001 293.96500000000003 123.655 302.15200000000004 138.75 304.97 C 143.179 305.87300000000005 147.719 305.975 152.225 305.935 C 161.309 305.787 170.474 303.94 178.554 299.686 C 178.979 301.688 179.313 303.70399999999995 179.576 305.73199999999997 C 167.415 311.486 153.393 312.799 140.23399999999998 310.291 C 128.13699999999997 308.013 117.00799999999998 301.985 107.59299999999999 294.187 C 104.493 291.58 101.454 288.869 98.78299999999999 285.81100000000004 C 96.67399999999999 283.48100000000005 94.44099999999999 281.21500000000003 92.81899999999999 278.50100000000003 C 93.047 277.963 93.274 277.43 93.501 276.898 z" stroke-linecap="round" />
</g>
<g transform="matrix(6.67 0 0 6.67 737.98 1101.76)"  >
<path style="stroke: none; stroke-width: 1; stroke-dasharray: none; stroke-linecap: butt; stroke-dashoffset: 0; stroke-linejoin: miter; stroke-miterlimit: 4; fill: rgb(25,157,167); fill-rule: nonzero; opacity: 1;" vector-effect="non-scaling-stroke"  transform=" translate(-133.87, -300.34)" d="M 88.037 280.263 C 89.92800000000001 281.508 91.155 283.445 92.617 285.126 C 102.296 296.60799999999995 114.60000000000001 306.16999999999996 128.789 311.394 C 145.082 317.459 163.661 317.056 179.69799999999998 310.366 C 179.63099999999997 312.253 179.55399999999997 314.143 179.47099999999998 316.031 C 166.24099999999999 320.994 151.48499999999999 321.764 137.79299999999998 318.28000000000003 C 125.05799999999998 315.03400000000005 113.54799999999997 307.995 103.86599999999999 299.23900000000003 C 98.55599999999998 294.43 93.75799999999998 289.07000000000005 89.44599999999998 283.355 C 88.73 282.457 88.321 281.364 88.037 280.263 z" stroke-linecap="round" />
</g>
<g transform="matrix(6.67 0 0 6.67 720.92 1145.15)"  >
<path style="stroke: none; stroke-width: 1; stroke-dasharray: none; stroke-linecap: butt; stroke-dashoffset: 0; stroke-linejoin: miter; stroke-miterlimit: 4; fill: rgb(25,157,167); fill-rule: nonzero; opacity: 1;" vector-effect="non-scaling-stroke"  transform=" translate(-131.31, -306.84)" d="M 83.815 284.318 C 85.283 285.50899999999996 86.211 287.181 87.384 288.633 C 96.919 300.871 108.995 311.33599999999996 123.099 317.991 C 134.262 323.288 146.705 326.06 159.083 325.337 C 165.793 324.995 172.435 323.694 178.808 321.58 C 178.67499999999998 323.062 178.542 324.543 178.41299999999998 326.025 C 165.771 330.17999999999995 151.95299999999997 330.36499999999995 139.09099999999998 327.104 C 126.05899999999998 323.812 114.18899999999998 316.813 104.13099999999997 308.024 C 96.316 301.1 89.416 293.117 83.815 284.318 z" stroke-linecap="round" />
</g>
<g transform="matrix(6.67 0 0 6.67 658.09 1271.84)"  >
<path style="stroke: none; stroke-width: 1; stroke-dasharray: none; stroke-linecap: butt; stroke-dashoffset: 0; stroke-linejoin: miter; stroke-miterlimit: 4; fill: rgb(25,157,167); fill-rule: nonzero; opacity: 1;" vector-effect="non-scaling-stroke"  transform=" translate(-121.9, -325.83)" d="M 76.837 290.973 C 77.681 289.98 78.712 289.172 79.785 288.444 C 88.416 301.10400000000004 99.181 312.45500000000004 112.041 320.894 C 118.747 325.287 126.005 328.868 133.638 331.341 C 147.489 335.758 162.511 335.851 176.624 332.624 C 174.316 340.41200000000003 170.432 347.916 164.458 353.53700000000003 C 159.206 358.514 152.302 361.56500000000005 145.18 362.658 C 138.32 363.73900000000003 131.27 363.16 124.56 361.463 C 114.346 359.11 104.434 355.372 95.326 350.18800000000005 C 86.018 344.886 77.109 338.08600000000007 71.687 328.677 C 68.00699999999999 322.175 66.005 314.29600000000005 67.901 306.923 C 69.386 300.919 72.867 295.636 76.837 290.973 z" stroke-linecap="round" />
</g>
</svg>