<?xml version="1.0" encoding="UTF-8" standalone="no" ?>
<!DOCTYPE svg PUBLIC "-//W3C//DTD SVG 1.1//EN" "http://www.w3.org/Graphics/SVG/1.1/DTD/svg11.dtd">
<svg xmlns="http://www.w3.org/2000/svg" xmlns:xlink="http://www.w3.org/1999/xlink" version="1.1" width="1600" height="1600" viewBox="0 0 1600 1600" xml:space="preserve">
<desc>Created with Fabric.js 5.2.4</desc>
<defs>
</defs>
<rect x="0" y="0" width="100%" height="100%" fill="transparent"></rect>
<g transform="matrix(1 0 0 1 800 800)" id="b598d8fb-b626-4f25-beaa-0ac8872542f3"  >
<rect style="stroke: none; stroke-width: 1; stroke-dasharray: none; stroke-linecap: butt; stroke-dashoffset: 0; stroke-linejoin: miter; stroke-miterlimit: 4; fill: rgb(255,255,255); fill-rule: nonzero; opacity: 1; visibility: hidden;" vector-effect="non-scaling-stroke"  x="-800" y="-800" rx="0" ry="0" width="1600" height="1600" />
</g>
<g transform="matrix(0 0 0 0 0 0)" id="b2a3992f-4d81-48fe-8d26-1a49fb073b44"  >
</g>
<g transform="matrix(1.93 0 0 1.93 798.89 782.49)"  >
<g style="" vector-effect="non-scaling-stroke"   >
		<g transform="matrix(1 0 0 1 0 0)" clip-path="url(#CLIPPATH_7)"  >
<clipPath id="CLIPPATH_7" >
	<rect transform="matrix(1 0 0 1 0 0)" id="clip0_949_15" x="-410.16" y="-400" rx="0" ry="0" width="820.32" height="800" />
</clipPath>
<path style="stroke: none; stroke-width: 1; stroke-dasharray: none; stroke-linecap: butt; stroke-dashoffset: 0; stroke-linejoin: miter; stroke-miterlimit: 4; fill: rgb(0,0,0); fill-rule: nonzero; opacity: 1;" vector-effect="non-scaling-stroke"  transform=" translate(-410.16, -400)" d="M 813.168 323.33 C 792.859 219.162 741.431 134.517 655.755 73.7336 C 565.771 9.89553 464.677 -10.95 356.42 5.25537 C 286.38 15.7395 226.132 48.3222 172.345 94.0033 C 169.293 96.5951 106.596 158.304 108.156 164.939 C 176.766 80.022 274.08 31.8448 294.99 32.3186 C 281.88 48.8615 272.093 66.7272 264.465 85.9475 C 245.885 132.765 238.21 181.638 236.91 231.769 L 236.39 248.41 C 226.533 250.092 219.014 258.771 219.014 269.254 C 219.014 279.1 225.651 287.352 234.625 289.714 L 234.218 297.273 C 234.904 322.437 235.878 347.593 236.662 372.754 C 236.837 378.312 236.688 383.881 236.688 389.908 C 216.074 383.639 200.329 374.075 189.07 363.348 L 184.582 359.025 L 184.582 357.568 L 219.013 357.568 L 219.013 345.1 L 170.125 345.1 L 164.774 339.947 C 137.962 312.295 115.207 281.892 102.771 244.737 C 99.7344 235.667 98.3356 225.878 97.3278 216.295 C 95.5138 199.045 104.877 188.262 119.256 181.239 C 123.273 179.277 127.766 178.278 132.092 177.016 C 148.105 172.35 164.539 173.551 180.885 173.52 C 188.685 173.504 210.112 177.587 217.875 175.811 C 203.944 172.668 176.486 166.379 162.507 165.721 C 145.619 164.923 128.788 166.619 112.769 173.212 C 95.0466 180.504 86.5913 194.316 85.5532 213.023 C 85.1779 219.78 85.9828 226.738 87.2019 233.427 C 91.0423 254.497 98.5514 274.323 110.557 291.907 C 121.453 307.865 133.718 322.859 145.275 338.358 C 145.275 338.358 146.885 340.61 150.945 345.102 L 135.293 345.102 L 135.293 357.568 L 163.113 357.568 C 165.106 359.494 167.32 361.582 169.724 363.801 L 169.724 448.342 L 184.583 448.342 L 184.583 376.989 C 185.195 377.513 185.76 378.009 186.389 378.544 C 204.092 388.521 220.598 397.823 237.908 407.579 C 240.451 425.428 243.04 443.604 245.687 462.191 C 245.958 464.132 246.103 465.822 246.59 468.525 C 247.648 475.955 248.715 483.452 249.798 491.044 C 249.798 491.044 249.904 491.805 250.121 493.195 C 244.486 496.914 240.086 502.139 236.932 508.879 C 233.763 515.646 232.182 523.427 232.182 532.223 C 232.182 541.02 233.736 548.721 236.85 555.315 C 239.959 561.913 244.32 567.018 249.931 570.625 C 255.541 574.237 262.073 576.041 269.516 576.041 C 269.986 576.041 270.421 575.982 270.882 575.967 C 271.057 576.479 271.228 576.987 271.406 577.499 C 281.409 603.176 291.112 628.084 301.209 654.001 C 274.396 670.176 247.652 685.921 217.295 693.999 C 212.447 695.289 207.316 696.168 202.328 696.109 C 183.885 695.892 172.278 686.766 169.232 668.324 C 167.399 657.226 167.201 645.558 168.254 634.338 C 169.466 621.436 172.867 608.745 175.317 595.961 C 169.387 606.355 164.482 617.104 161.01 628.308 C 157.378 640.027 155.125 652.185 152.062 665.02 C 110.843 622.075 88.2656 589.873 82.6897 569.755 C 90.6293 565.473 97.0001 559.213 101.759 550.919 C 107.48 540.936 110.343 528.785 110.343 514.463 C 110.343 501.944 108.117 491.061 103.676 481.812 C 99.2279 472.568 92.8665 465.46 84.5915 460.497 C 76.3099 455.534 66.5038 453.053 55.1698 453.053 C 43.9452 453.053 34.169 455.534 25.8344 460.497 C 17.5032 465.46 11.112 472.568 6.66713 481.812 C 2.2226 491.061 0 502.001 0 514.631 C 0 527.15 2.25219 538.037 6.75013 547.281 C 11.2511 556.53 17.6393 563.664 25.9205 568.681 C 34.1952 573.701 43.9449 576.21 55.1694 576.21 C 56.9393 576.21 58.3784 576.178 59.5078 576.121 C 92.0052 621.748 127.655 664.682 168.965 700.667 C 199.868 727.587 232.221 752.399 270.05 768.913 C 328.276 794.33 389.276 802.585 452.05 799.323 C 501.594 796.75 549.194 785.378 593.662 762.732 C 690.933 713.193 757.847 635.815 796.156 532.742 C 808.755 498.844 816.563 463.671 819.215 427.58 C 821.784 392.652 819.903 357.862 813.17 323.331 L 813.168 323.33 Z M 27.5845 549.651 C 20.9739 541.418 17.6689 529.688 17.6689 514.462 C 17.6689 499.349 20.9443 487.705 27.5016 479.528 C 34.0588 471.352 43.2805 467.263 55.1694 467.263 C 67.0583 467.263 76.3097 471.352 82.9238 479.528 C 89.5343 487.705 92.8394 499.349 92.8394 514.462 C 92.8394 529.688 89.5341 541.418 82.9238 549.651 C 76.3101 557.884 67.0583 561.997 55.1694 561.997 C 43.39 561.997 34.1952 557.884 27.5845 549.651 Z M 266.218 502.243 C 268.41 501.608 270.777 501.265 273.349 501.265 C 281.016 501.265 286.935 503.919 291.102 509.216 C 295.268 514.519 297.354 522.075 297.354 531.886 C 297.354 541.585 295.268 549.115 291.102 554.472 C 288.307 558.067 284.729 560.426 280.408 561.608 L 266.218 502.243 Z M 255.598 554.556 C 251.319 549.256 249.184 541.812 249.184 532.223 C 249.184 524.156 250.684 517.575 253.645 512.431 C 256.248 525.133 260.3 542.45 266.178 561.532 C 261.932 560.333 258.396 558.022 255.598 554.556 Z M 204.628 711.509 C 222.252 706.134 240.359 701.978 257.356 695.025 C 274.45 688.031 290.438 678.256 308.406 668.922 C 312.111 675.702 315.604 682.741 319.671 689.42 C 331.805 709.344 343.183 729.854 356.77 748.717 C 366.299 761.949 378.958 772.859 390.682 785.296 C 343.549 789.982 244.73 749.631 204.628 711.509 Z M 789.141 530.127 C 774.774 491.453 751.577 463.972 723.941 440.086 C 697.289 417.052 656.302 392.772 623.171 380.316 C 636.818 389.936 662.053 405.227 675.57 415.032 C 700.912 433.412 724.417 453.949 744.928 477.811 C 757.258 492.153 767.4 507.854 772.947 526.345 C 779.123 546.932 774.258 564.871 760.425 580.395 C 742.311 600.723 718.402 608.86 692.409 610.576 C 638.709 614.122 586.697 606.284 537.061 584.412 C 536.174 584.021 519.775 578.064 515.189 578.064 C 539.399 592.463 577.218 607.088 601.227 611.748 C 636.237 618.543 671.328 622.682 707.061 617.938 C 723.659 615.734 738.34 608.997 752.952 600.855 C 747.127 626.005 692.969 685.648 654.7 713.404 C 598.506 754.159 536.153 778.284 464.614 786.804 C 468.007 781.584 469.95 778.599 471.889 775.614 C 486.479 753.151 493.232 727.818 497.877 701.774 C 498.123 700.395 498.356 699.061 498.65 697.776 C 508.732 696.29 516.485 687.505 516.485 676.86 C 516.485 667.393 510.356 659.38 501.906 656.678 C 501.846 654.793 501.621 653.231 501.082 652.572 L 501.082 613.836 C 500.428 613.78 499.776 613.722 499.122 613.665 C 497.279 626.433 495.436 639.2 493.427 653.111 C 492.71 653.647 493.162 654.642 493.856 655.791 C 483.176 656.709 474.787 665.784 474.787 676.86 C 474.787 686.08 480.607 693.9 488.712 696.801 C 488.293 697.542 487.939 698.304 487.719 699.096 C 481.321 722.232 475.173 745.449 462.95 766.41 C 452.165 784.905 439.571 792.224 414.076 782.77 C 396.707 776.329 382.834 764.569 370.516 750.911 C 347.436 725.323 329.563 696.343 316.047 664.05 C 358.878 632.006 410.272 593.108 454.772 559.772 C 455.966 563.241 457.711 566.19 460.03 568.595 C 464.807 573.562 471.53 576.041 480.197 576.041 C 484.864 576.041 489.031 575.42 492.697 574.18 L 492.697 560.308 C 489.697 561.212 486.752 561.66 483.865 561.66 C 479.419 561.66 475.948 560.45 473.447 558.022 C 471.069 555.717 469.86 551.806 469.742 546.388 C 511.925 502.953 526.348 473.188 526.348 473.188 L 469.697 531.482 L 469.697 502.789 L 492.867 502.789 L 492.867 489.592 L 469.697 489.592 L 469.697 462.357 L 452.862 468.277 L 452.862 489.592 L 436.528 489.592 L 436.528 502.789 L 452.862 502.789 L 452.862 545.899 L 417.029 573.022 L 417.029 521.734 C 417.029 498.955 406.97 487.563 386.859 487.563 C 380.415 487.563 374.665 488.999 369.609 491.875 C 364.55 494.75 360.693 498.898 358.025 504.309 L 356.524 489.592 L 340.858 489.592 C 341.744 496.696 342.19 504.707 342.19 513.614 L 342.19 574.856 L 358.86 574.856 L 358.86 526.302 C 358.86 518.75 360.995 512.715 365.274 508.201 C 369.552 503.692 375.245 501.433 382.358 501.433 C 388.58 501.433 393.112 503.125 395.945 506.51 C 398.778 509.892 400.193 515.307 400.193 522.751 L 400.193 574.856 L 414.604 574.856 L 409.916 578.404 C 376.399 602.389 344.192 625.437 310.82 649.319 C 307.956 643.833 305.531 640.198 304.064 636.201 C 297.951 619.553 291.886 602.88 286.253 586.06 L 283.247 573.481 C 284.339 573.029 285.415 572.552 286.435 571.98 C 291.27 569.272 294.906 565.382 297.355 560.308 L 297.355 574.856 L 314.02 574.856 L 314.02 489.592 L 297.355 489.592 L 297.355 503.462 C 294.796 498.388 291.13 494.471 286.353 491.706 C 281.573 488.944 275.961 487.562 269.518 487.562 C 267.209 487.562 265.012 487.823 262.862 488.202 L 261.849 483.961 C 258.272 461.74 252.66 436.151 253.912 411.437 L 255.862 411.393 C 255.863 411.482 255.872 411.565 255.872 411.655 C 255.872 423.353 259.16 432.561 265.73 439.279 C 272.301 445.997 281.349 449.356 292.874 449.356 C 297.922 449.356 302.945 448.509 307.948 446.82 C 312.948 445.128 317.066 442.831 320.305 439.932 L 315.878 429.49 C 309.018 435.003 301.447 437.757 293.159 437.757 C 278.303 437.757 270.634 429.2 270.158 412.089 L 321.59 412.089 L 321.59 409.625 C 321.59 398.312 318.804 389.469 313.233 383.09 C 307.662 376.708 300.019 373.519 290.302 373.519 C 283.635 373.519 277.682 375.113 272.444 378.303 C 268.562 380.669 265.327 383.757 262.728 387.555 C 266.367 388.91 270.541 390.085 275.087 391.907 C 275.76 390.972 276.491 390.102 277.303 389.324 C 280.732 386.041 285.16 384.395 290.589 384.395 C 295.923 384.395 300.163 386.013 303.304 389.25 C 306.447 392.49 308.304 397.204 308.875 403.39 L 280.364 403.39 C 270.535 401.673 260.796 398.968 251.458 396.396 C 250.248 379.154 248.671 362.715 248.06 346.24 C 247.444 329.645 247.85 313.011 247.68 296.397 C 247.652 293.593 247.856 290.999 248.43 288.53 C 255.668 285.212 260.712 277.837 260.712 269.252 C 260.712 261.397 256.484 254.556 250.223 250.906 C 250.11 247.382 250.124 243.6 250.348 239.57 C 253.339 185.558 259.423 132.403 281.223 82.3227 C 289.014 64.4236 298.27 47.4029 311.934 33.2969 C 325.997 18.7802 338.387 16.6808 356.156 25.9462 C 370.564 33.4589 381.842 44.8218 390.534 58.3617 C 399.754 72.7206 407.713 87.9158 416.144 102.792 C 419.059 107.939 429.575 131.717 434.131 140.256 C 432.289 105.89 399.741 46.2556 363.787 13.8121 C 438.978 -6.70133 582.141 26.1513 654.232 83.9179 C 650.504 85.1086 647.455 86.6319 644.275 87.0134 C 613.876 90.6572 587.165 104.123 561.008 119.022 C 530.833 136.211 503.436 157.509 477.803 180.807 C 448.393 207.537 420.469 235.953 391.946 263.688 C 389.96 265.62 378.352 280.669 377.969 284.821 C 381.109 282.416 394.307 267.363 397.404 264.905 C 400.961 262.083 404.48 259.212 407.964 256.299 C 441.062 228.628 473.68 200.337 507.389 173.456 C 534.458 151.87 563.214 132.53 594.22 117.046 C 612.539 107.897 631.688 101.411 652.372 100.145 C 671.95 98.9477 683.025 106.772 688.682 125.852 C 693.119 140.82 690.214 155.568 687.562 170.069 C 684.907 184.576 680.136 198.682 676.563 211.962 C 676.161 213.513 675.895 214.81 675.673 216.014 C 675.019 215.951 674.359 215.912 673.69 215.912 C 662.176 215.912 652.841 225.386 652.841 237.073 C 652.841 242.733 655.043 247.862 658.61 251.659 C 644.456 284.361 616.067 331.487 600.302 362.392 C 619.492 341.596 644.781 298.82 658.307 274.138 C 661.323 268.632 663.883 262.852 667.165 257.524 C 667.225 257.427 667.277 257.323 667.337 257.225 C 669.34 257.875 671.473 258.233 673.69 258.233 C 685.204 258.233 694.539 248.759 694.539 237.073 C 694.539 229.885 690.999 223.544 685.601 219.719 C 690.17 204.877 695.428 190.484 698.874 175.658 C 702.336 160.765 703.943 145.428 706.333 130.478 C 742.851 157.018 790.618 247.532 805.24 321.085 C 819.113 390.864 813.538 459.384 789.143 530.126 L 789.141 530.127 Z" stroke-linecap="round" />
</g>
		<g transform="matrix(1 0 0 1 -237.9 132.81)" clip-path="url(#CLIPPATH_8)"  >
<clipPath id="CLIPPATH_8" >
	<rect transform="matrix(1 0 0 1 237.9 -132.82)" id="clip0_949_15" x="-410.16" y="-400" rx="0" ry="0" width="820.32" height="800" />
</clipPath>
<path style="stroke: none; stroke-width: 1; stroke-dasharray: none; stroke-linecap: butt; stroke-dashoffset: 0; stroke-linejoin: miter; stroke-miterlimit: 4; fill: rgb(0,0,0); fill-rule: nonzero; opacity: 1;" vector-effect="non-scaling-stroke"  transform=" translate(-172.26, -532.82)" d="M 135.508 489.593 L 135.508 541.866 C 135.508 564.652 145.619 576.041 165.845 576.041 C 171.732 576.041 177.011 574.715 181.678 572.066 C 186.346 569.415 190.012 565.609 192.679 560.645 L 192.679 574.856 L 209.013 574.856 L 209.013 489.592 L 192.178 489.592 L 192.178 537.469 C 192.178 544.914 190.096 550.892 185.93 555.402 C 181.761 559.913 176.233 562.169 169.344 562.169 C 163.568 562.169 159.262 560.504 156.428 557.176 C 153.595 553.852 152.176 548.694 152.176 541.697 L 152.176 489.592 L 135.508 489.592 L 135.508 489.593 Z" stroke-linecap="round" />
</g>
		<g transform="matrix(1 0 0 1 147.95 132.81)" clip-path="url(#CLIPPATH_9)"  >
<clipPath id="CLIPPATH_9" >
	<rect transform="matrix(1 0 0 1 -147.95 -132.82)" id="clip0_949_15" x="-410.16" y="-400" rx="0" ry="0" width="820.32" height="800" />
</clipPath>
<path style="stroke: none; stroke-width: 1; stroke-dasharray: none; stroke-linecap: butt; stroke-dashoffset: 0; stroke-linejoin: miter; stroke-miterlimit: 4; fill: rgb(0,0,0); fill-rule: nonzero; opacity: 1;" vector-effect="non-scaling-stroke"  transform=" translate(-558.11, -532.82)" d="M 578.031 537.47 C 578.031 544.914 575.948 550.892 571.783 555.403 C 567.614 559.913 562.086 562.171 555.197 562.171 C 549.42 562.171 545.114 560.505 542.281 557.176 C 539.448 553.852 538.03 548.694 538.03 541.697 L 538.03 489.593 L 521.36 489.593 L 521.36 541.866 C 521.36 564.652 531.472 576.041 551.698 576.041 C 557.584 576.041 562.863 574.715 567.53 572.066 C 572.197 569.415 575.865 565.609 578.533 560.645 L 578.533 574.856 L 594.867 574.856 L 594.867 489.592 L 578.031 489.592 L 578.031 537.469 L 578.031 537.47 Z" stroke-linecap="round" />
</g>
		<g transform="matrix(1 0 0 1 274.14 131.21)" clip-path="url(#CLIPPATH_10)"  >
<clipPath id="CLIPPATH_10" >
	<rect transform="matrix(1 0 0 1 -274.13 -131.21)" id="clip0_949_15" x="-410.16" y="-400" rx="0" ry="0" width="820.32" height="800" />
</clipPath>
<path style="stroke: none; stroke-width: 1; stroke-dasharray: none; stroke-linecap: butt; stroke-dashoffset: 0; stroke-linejoin: miter; stroke-miterlimit: 4; fill: rgb(0,0,0); fill-rule: nonzero; opacity: 1;" vector-effect="non-scaling-stroke"  transform=" translate(-684.29, -531.21)" d="M 623.038 513.615 L 623.038 574.856 L 639.706 574.856 L 639.706 526.643 C 639.706 518.858 641.594 512.715 645.374 508.201 C 649.147 503.693 654.259 501.433 660.706 501.433 C 666.261 501.433 670.291 503.127 672.792 506.512 C 675.29 509.893 676.542 515.25 676.542 522.58 L 676.542 574.856 L 693.374 574.856 L 693.374 526.643 C 693.374 518.858 695.235 512.715 698.958 508.201 C 702.682 503.693 707.764 501.433 714.209 501.433 C 719.767 501.433 723.792 503.127 726.293 506.512 C 728.795 509.893 730.043 515.25 730.043 522.58 L 730.043 574.856 L 746.878 574.856 L 746.878 521.734 C 746.878 498.955 737.545 487.563 718.875 487.563 C 712.65 487.563 707.069 489.03 702.127 491.962 C 697.18 494.896 693.43 498.898 690.876 503.973 C 686.873 493.035 678.372 487.563 665.374 487.563 C 659.261 487.563 653.927 488.976 649.372 491.79 C 644.814 494.613 641.313 498.618 638.872 503.803 L 637.371 489.592 L 621.705 489.592 C 622.591 496.696 623.036 504.707 623.036 513.615 L 623.038 513.615 Z" stroke-linecap="round" />
</g>
		<g transform="matrix(1 0 0 1 -25.49 10.93)" clip-path="url(#CLIPPATH_11)"  >
<clipPath id="CLIPPATH_11" >
	<rect transform="matrix(1 0 0 1 25.49 -10.93)" id="clip0_949_15" x="-410.16" y="-400" rx="0" ry="0" width="820.32" height="800" />
</clipPath>
<path style="stroke: none; stroke-width: 1; stroke-dasharray: none; stroke-linecap: butt; stroke-dashoffset: 0; stroke-linejoin: miter; stroke-miterlimit: 4; fill: rgb(0,0,0); fill-rule: nonzero; opacity: 1;" vector-effect="non-scaling-stroke"  transform=" translate(-384.67, -410.93)" d="M 386.311 377.363 C 382.312 379.925 379.358 383.624 377.452 388.455 L 376.166 375.258 L 362.739 375.258 C 363.5 381.351 363.881 388.215 363.881 395.849 L 363.881 448.341 L 378.166 448.341 L 378.166 407.595 C 378.166 401.506 379.809 396.455 383.094 392.443 C 386.381 388.432 391.309 386.425 397.881 386.425 C 400.931 386.425 403.741 386.91 406.311 387.874 L 406.597 374.533 C 404.216 373.858 401.929 373.519 399.741 373.519 C 394.786 373.519 390.311 374.8 386.311 377.361 L 386.311 377.363 Z" stroke-linecap="round" />
</g>
		<g transform="matrix(1 0 0 1 53.94 10.93)" clip-path="url(#CLIPPATH_12)"  >
<clipPath id="CLIPPATH_12" >
	<rect transform="matrix(1 0 0 1 -53.94 -10.93)" id="clip0_949_15" x="-410.16" y="-400" rx="0" ry="0" width="820.32" height="800" />
</clipPath>
<path style="stroke: none; stroke-width: 1; stroke-dasharray: none; stroke-linecap: butt; stroke-dashoffset: 0; stroke-linejoin: miter; stroke-miterlimit: 4; fill: rgb(0,0,0); fill-rule: nonzero; opacity: 1;" vector-effect="non-scaling-stroke"  transform=" translate(-464.1, -410.93)" d="M 465.741 377.363 C 461.741 379.925 458.788 383.624 456.881 388.455 L 455.596 375.258 L 442.169 375.258 C 442.93 381.351 443.312 388.215 443.312 395.849 L 443.312 448.341 L 457.596 448.341 L 457.596 407.595 C 457.596 401.506 459.24 396.455 462.525 392.443 C 465.811 388.432 470.74 386.425 477.311 386.425 C 480.361 386.425 483.17 386.91 485.742 387.874 L 486.028 374.533 C 483.646 373.858 481.36 373.519 479.171 373.519 C 474.215 373.519 469.74 374.8 465.741 377.361 L 465.741 377.363 Z" stroke-linecap="round" />
</g>
		<g transform="matrix(1 0 0 1 144.8 11.44)" clip-path="url(#CLIPPATH_13)"  >
<clipPath id="CLIPPATH_13" >
	<rect transform="matrix(1 0 0 1 -144.8 -11.44)" id="clip0_949_15" x="-410.16" y="-400" rx="0" ry="0" width="820.32" height="800" />
</clipPath>
<path style="stroke: none; stroke-width: 1; stroke-dasharray: none; stroke-linecap: butt; stroke-dashoffset: 0; stroke-linejoin: miter; stroke-miterlimit: 4; fill: rgb(0,0,0); fill-rule: nonzero; opacity: 1;" vector-effect="non-scaling-stroke"  transform=" translate(-554.96, -411.44)" d="M 535.105 444.718 C 539.912 447.813 545.509 449.358 551.891 449.358 C 557.415 449.358 562.248 448.197 566.391 445.877 C 570.536 443.558 573.652 440.223 575.749 435.874 L 575.749 448.342 L 590.036 448.342 L 590.036 375.259 L 575.749 375.259 L 575.749 387.15 C 573.559 382.801 570.413 379.444 566.321 377.073 C 562.226 374.707 557.415 373.52 551.891 373.52 C 545.699 373.52 540.174 375.115 535.318 378.304 C 530.462 381.497 526.674 385.991 523.96 391.79 C 521.246 397.588 519.887 404.261 519.887 411.801 C 519.887 419.339 521.223 425.941 523.89 431.595 C 526.554 437.249 530.295 441.625 535.105 444.718 Z M 539.962 392.299 C 543.626 387.609 548.699 385.267 555.176 385.267 C 561.75 385.267 566.819 387.539 570.394 392.08 C 573.965 396.626 575.749 403.102 575.749 411.511 C 575.749 419.824 573.965 426.278 570.394 430.87 C 566.819 435.462 561.797 437.759 555.318 437.759 C 548.748 437.759 543.626 435.486 539.962 430.941 C 536.295 426.4 534.461 420.02 534.461 411.801 C 534.461 403.49 536.295 396.989 539.962 392.299 Z" stroke-linecap="round" />
</g>
</g>
</g>
</svg>