<?xml version="1.0" encoding="UTF-8" standalone="no"?>
<!DOCTYPE svg PUBLIC "-//W3C//DTD SVG 1.1//EN" "http://www.w3.org/Graphics/SVG/1.1/DTD/svg11.dtd">
<svg xmlns="http://www.w3.org/2000/svg" version="1.1" viewBox="0.00 0.00 301.00 268.00">
<g stroke-width="2.00" fill="none" stroke-linecap="butt">
<path stroke="#609acf" vector-effect="non-scaling-stroke" d="
  M 263.98 123.80
  L 263.06 116.38
  L 261.78 109.07
  L 260.15 101.86
  L 258.18 94.76
  L 258.18 94.76
  L 258.18 94.76
  L 254.89 85.17
  L 250.93 75.78
  L 248.25 70.28
  L 245.38 64.98
  L 242.32 59.87
  L 239.07 54.95
  L 235.63 50.22
  L 232.00 45.69
  L 228.18 41.35
  L 224.17 37.21
  L 224.17 37.21
  L 224.17 37.21
  L 224.17 37.21
  L 217.67 31.25
  L 210.73 25.75
  L 203.35 20.69
  L 195.52 16.09
  L 189.46 13.02
  L 183.18 10.26
  L 176.64 7.81
  L 169.97 5.70
  L 163.21 3.95
  L 156.41 2.57
  L 149.62 1.58
  L 142.88 0.97
  L 131.91 0.63
  L 120.00 0.89
  L 119.85 0.85
  L 119.70 0.47"
/>
<path stroke="#494847" vector-effect="non-scaling-stroke" d="
  M 137.97 92.26
  L 136.64 89.59
  L 136.53 89.33
  L 135.70 87.74
  L 134.69 86.38
  L 133.50 85.20
  L 132.07 84.14
  L 130.50 83.28
  L 128.79 82.61
  L 126.99 82.14
  L 125.03 81.86
  L 123.05 81.79
  L 111.62 81.91
  L 99.97 81.81
  L 99.36 82.02
  L 99.03 82.57
  L 87.78 140.02"
/>
<path stroke="#494847" vector-effect="non-scaling-stroke" d="
  M 138.01 98.74
  L 137.16 100.98
  L 136.10 102.99
  L 134.83 104.78
  L 133.36 106.34
  L 133.36 106.34
  L 133.36 106.34
  L 131.29 107.94
  L 128.91 109.21
  L 128.56 109.52
  L 128.88 109.85
  L 131.66 111.50
  L 133.57 113.18
  L 134.83 114.92
  L 136.07 117.75
  L 136.60 120.98
  L 136.37 124.42
  L 135.44 127.80
  L 133.80 131.13
  L 131.58 134.06
  L 128.89 136.43
  L 126.00 138.01
  L 123.38 138.86
  L 119.28 139.90"
/>
<path stroke="#656262" vector-effect="non-scaling-stroke" d="
  M 154.30 168.94
  L 153.98 168.87"
/>
<path stroke="#494847" vector-effect="non-scaling-stroke" d="
  M 153.98 168.87
  L 162.72 121.60
  L 162.60 121.07
  L 162.12 120.80
  L 162.06 120.80
  L 153.10 120.83
  L 152.17 121.16
  L 151.66 122.01
  L 140.75 176.68"
/>
<path stroke="#1c1b1b" vector-effect="non-scaling-stroke" d="
  M 153.98 168.87
  L 153.81 169.05
  L 153.81 169.20
  L 153.94 169.27
  L 154.09 169.29
  L 157.05 169.47
  L 160.08 169.13"
/>
<path stroke="#5a5a5a" vector-effect="non-scaling-stroke" d="
  M 189.95 169.95
  L 186.62 187.89"
/>
<path stroke="#5a5a5a" vector-effect="non-scaling-stroke" d="
  M 176.99 187.51
  L 178.77 180.17
  L 178.79 180.07
  L 178.58 179.39
  L 177.93 179.09
  L 142.05 179.21
  L 141.43 179.07
  L 141.01 178.70
  L 140.70 177.87
  L 140.75 176.68"
/>
<path stroke="#494847" vector-effect="non-scaling-stroke" d="
  M 187.37 169.13
  L 187.33 169.23
  L 186.85 169.49
  L 185.92 169.47
  L 185.90 169.47
  L 185.34 169.12
  L 185.21 168.47
  L 194.16 121.74
  L 194.03 121.18
  L 193.54 120.90
  L 193.54 120.90
  L 193.47 120.90
  L 184.01 120.84
  L 183.50 121.02
  L 183.22 121.49
  L 174.40 167.50
  L 174.36 167.58
  L 174.28 167.62
  L 174.09 167.80"
/>
<path stroke="#609acf" vector-effect="non-scaling-stroke" d="
  M 264.40 130.12
  L 264.07 137.13
  L 264.00 142.50
  L 264.47 143.23"
/>
<path stroke="#609acf" vector-effect="non-scaling-stroke" d="
  M 264.37 145.75
  L 264.11 145.66
  L 263.85 145.70
  L 263.75 145.93
  L 262.35 155.98
  L 260.23 165.85
  L 260.23 165.85
  L 257.36 175.62
  L 252.56 190.21
  L 252.05 190.91
  L 251.22 191.18
  L 214.30 191.22
  L 213.81 190.97
  L 213.72 190.43
  L 213.80 190.26
  L 217.03 185.42
  L 220.04 180.41
  L 222.83 175.23
  L 225.39 169.88
  L 227.83 163.62
  L 229.66 156.98
  L 230.90 149.95
  L 231.53 142.54"
/>
<path stroke="#5093d1" vector-effect="non-scaling-stroke" d="
  M 231.95 139.07
  L 232.48 133.93
  L 232.27 128.87
  L 232.27 128.87
  L 231.91 126.49"
/>
<path stroke="#609acf" vector-effect="non-scaling-stroke" d="
  M 231.49 123.56
  L 231.67 121.21
  L 231.37 118.25
  L 230.46 113.43
  L 229.36 108.72
  L 228.07 104.12
  L 226.60 99.63
  L 224.93 95.25
  L 223.08 90.97
  L 221.04 86.81
  L 218.81 82.76
  L 218.81 82.76
  L 218.81 82.76
  L 218.81 82.76
  L 214.43 75.91
  L 209.48 69.40
  L 203.95 63.23
  L 197.84 57.40
  L 190.97 51.79
  L 183.81 46.89
  L 176.37 42.70
  L 168.65 39.21
  L 168.65 39.21
  L 168.65 39.21
  L 164.37 37.62
  L 160.01 36.23
  L 155.37 35.02
  L 150.56 34.05
  L 145.56 33.30
  L 140.38 32.79
  L 134.16 32.49
  L 127.98 32.53
  L 121.85 32.91
  L 115.77 33.62
  L 115.77 33.62
  L 110.50 34.51
  L 105.26 35.66
  L 97.01 38.04
  L 89.16 41.03
  L 81.73 44.64
  L 74.70 48.86
  L 74.70 48.86
  L 74.70 48.86
  L 74.70 48.86
  L 71.07 51.40
  L 67.56 54.12
  L 64.16 57.03
  L 60.89 60.11
  L 57.73 63.37
  L 54.70 66.81
  L 51.79 70.44
  L 48.99 74.24
  L 46.21 78.48
  L 43.68 82.88
  L 41.34 87.57
  L 39.25 92.41
  L 37.37 97.47
  L 35.69 102.84
  L 34.26 108.29
  L 33.05 114.00
  L 32.47 118.16
  L 32.43 121.57"
/>
<path stroke="#5093d1" vector-effect="non-scaling-stroke" d="
  M 32.23 125.21
  L 31.91 125.14
  L 31.76 125.23
  L 31.64 125.58
  L 31.37 132.89
  L 31.68 139.50
  L 31.88 139.93
  L 32.30 140.02"
/>
<path stroke="#609acf" vector-effect="non-scaling-stroke" d="
  M 32.46 141.70
  L 32.46 141.70
  L 32.46 141.70
  L 32.09 142.34
  L 32.08 143.49
  L 33.41 152.21
  L 35.37 160.65
  L 37.97 168.80
  L 41.19 176.66
  L 41.19 176.66
  L 41.19 176.66
  L 41.19 176.66
  L 44.19 182.69
  L 47.59 188.54
  L 51.39 194.21
  L 55.59 199.70
  L 59.76 204.50
  L 64.19 208.94
  L 68.86 213.03
  L 73.78 216.76
  L 73.78 216.76
  L 73.78 216.76
  L 73.78 216.76
  L 77.83 219.45
  L 82.03 221.93
  L 86.39 224.18
  L 90.91 226.22
  L 95.57 228.03
  L 100.39 229.63
  L 105.37 231.01
  L 110.50 232.17
  L 114.45 232.65
  L 118.87 232.61"
/>
<path stroke="#609acf" vector-effect="non-scaling-stroke" d="
  M 126.15 232.61
  L 130.16 232.75
  L 130.92 233.09
  L 131.23 233.87
  L 131.24 265.71
  L 131.01 266.27
  L 130.44 266.50
  L 130.43 266.50
  L 120.67 265.92
  L 111.11 264.73
  L 101.76 262.94
  L 92.62 260.53
  L 86.57 258.56
  L 80.63 256.31
  L 74.80 253.77
  L 69.10 250.97
  L 63.54 247.91
  L 58.14 244.58
  L 52.91 241.00
  L 47.86 237.18
  L 43.06 233.17
  L 38.47 228.93
  L 34.16 224.53
  L 30.08 219.93
  L 26.25 215.16
  L 22.67 210.18
  L 19.41 205.11
  L 16.40 199.85
  L 11.75 190.36
  L 7.79 180.45
  L 4.50 170.13
  L 1.90 159.39"
/>
<path stroke="#5093d1" vector-effect="non-scaling-stroke" d="
  M 1.41 157.38
  L 0.40 145.55
  L 0.36 145.43
  L 0.24 145.37
  L 0.20 145.36
  L 0.00 145.25"
/>
<path stroke="#5093d1" vector-effect="non-scaling-stroke" d="
  M 0.00 125.07
  L 0.63 118.78
  L 1.49 112.59
  L 2.60 106.52
  L 3.96 100.55
  L 5.55 94.69
  L 7.39 88.93
  L 9.47 83.29
  L 11.79 77.75
  L 11.79 77.75
  L 11.79 77.75
  L 15.47 70.15
  L 19.62 62.75
  L 24.26 55.58
  L 29.37 48.61
  L 34.87 42.02
  L 40.72 35.90
  L 46.91 30.25
  L 53.45 25.07
  L 53.45 25.07
  L 53.45 25.07
  L 57.76 22.04
  L 62.20 19.20
  L 66.78 16.55
  L 71.50 14.08
  L 76.36 11.80
  L 81.36 9.70
  L 86.49 7.80
  L 91.76 6.08
  L 101.19 3.64
  L 108.89 2.30
  L 110.71 2.03
  L 116.59 0.85"
/>
<path stroke="#494847" vector-effect="non-scaling-stroke" d="
  M 108.21 94.00
  L 108.00 94.09
  L 107.63 94.74
  L 106.00 104.02
  L 106.04 104.25
  L 106.61 104.34"
/>
<path stroke="#494847" vector-effect="non-scaling-stroke" d="
  M 116.54 104.75
  L 119.33 104.81
  L 121.68 104.46
  L 123.60 103.71
  L 125.07 102.55
  L 125.07 102.55
  L 125.07 102.55
  L 125.89 101.42
  L 126.46 100.06
  L 126.79 98.47
  L 126.87 96.66
  L 126.54 94.70
  L 125.68 93.25
  L 125.68 93.25
  L 125.61 93.18
  L 124.26 92.11
  L 122.78 91.45
  L 121.41 91.22
  L 115.67 91.10
  L 109.16 91.29
  L 108.74 91.40
  L 108.44 91.64
  L 108.17 92.08
  L 108.16 93.23"
/>
<path stroke="#494847" vector-effect="non-scaling-stroke" d="
  M 114.14 114.99
  L 104.61 115.21
  L 103.92 115.49
  L 103.55 116.13
  L 100.95 129.33
  L 100.96 129.84
  L 101.16 130.30
  L 101.54 130.64
  L 102.02 130.80
  L 102.02 130.80
  L 102.11 130.81
  L 109.26 130.84
  L 117.19 130.24
  L 119.75 129.74
  L 121.62 128.93
  L 122.75 128.05
  L 123.68 127.00
  L 124.41 125.81
  L 124.93 124.53
  L 125.22 123.18
  L 125.27 121.79
  L 125.07 120.42
  L 124.62 119.09
  L 123.67 117.61
  L 122.19 116.39
  L 120.20 115.57
  L 117.63 115.12
  L 114.14 114.99"
/>
<path stroke="#1c1b1b" vector-effect="non-scaling-stroke" d="
  M 156.40 220.23
  L 174.30 220.34"
/>
<path stroke="#5a5a5a" vector-effect="non-scaling-stroke" d="
  M 174.30 220.34
  L 176.69 220.80
  L 178.81 221.53
  L 180.67 222.54
  L 182.27 223.82
  L 182.27 223.82
  L 182.27 223.82
  L 183.57 225.33
  L 184.62 227.10
  L 185.41 229.12
  L 185.96 231.41
  L 186.01 233.60
  L 186.11 234.81
  L 186.47 235.81"
/>
<path stroke="#5a5a5a" vector-effect="non-scaling-stroke" d="
  M 186.40 237.45
  L 184.19 241.99
  L 183.44 243.39
  L 182.50 244.61
  L 182.50 244.61
  L 181.36 245.65
  L 180.03 246.51
  L 178.51 247.20
  L 176.79 247.71
  L 170.15 248.99"
/>
<path stroke="#1c1b1b" vector-effect="non-scaling-stroke" d="
  M 153.13 266.61
  L 153.97 253.86
  L 154.11 241.12
  L 153.88 234.11
  L 153.50 222.00
  L 153.59 221.28
  L 153.88 220.72
  L 153.88 220.72
  L 154.46 220.27"
/>
<path stroke="#5a5a5a" vector-effect="non-scaling-stroke" d="
  M 159.03 241.99
  L 159.35 242.54
  L 159.76 242.86
  L 160.25 242.96
  L 170.79 242.73
  L 174.22 242.38
  L 176.50 241.64
  L 177.65 240.85
  L 178.53 239.88
  L 178.53 239.88
  L 178.53 239.88
  L 179.36 238.16
  L 179.65 236.05"
/>
<path stroke="#5a5a5a" vector-effect="non-scaling-stroke" d="
  M 179.57 233.31
  L 179.77 231.58
  L 179.43 230.29
  L 178.67 229.05
  L 176.85 227.31
  L 175.88 226.76
  L 174.85 226.43
  L 174.85 226.43
  L 173.20 226.33"
/>
<path stroke="#767475" vector-effect="non-scaling-stroke" d="
  M 173.52 219.99
  L 173.69 220.23
  L 174.30 220.34"
/>
<path stroke="#494847" vector-effect="non-scaling-stroke" d="
  M 228.64 220.88
  L 228.16 221.20
  L 228.17 221.24
  L 243.81 264.12
  L 244.25 265.05
  L 244.96 266.68
  L 245.07 268.00"
/>
<path stroke="#494847" vector-effect="non-scaling-stroke" d="
  M 237.66 266.25
  L 237.47 264.57
  L 236.76 262.78"
/>
<path stroke="#5a5a5a" vector-effect="non-scaling-stroke" d="
  M 236.76 262.78
  L 236.04 260.43
  L 234.10 255.13
  L 233.51 254.10
  L 232.83 253.68
  L 232.18 253.82"
/>
<path stroke="#494847" vector-effect="non-scaling-stroke" d="
  M 220.96 253.92
  L 218.60 253.59
  L 216.36 253.74
  L 215.87 253.97
  L 215.57 254.45
  L 211.43 268.05"
/>
<path stroke="#5a5a5a" vector-effect="non-scaling-stroke" d="
  M 205.02 267.06
  L 205.60 266.27
  L 213.58 243.39
  L 221.14 220.36"
/>
<path stroke="#494847" vector-effect="non-scaling-stroke" d="
  M 224.09 229.47
  L 217.98 247.83"
/>
<path stroke="#494847" vector-effect="non-scaling-stroke" d="
  M 231.05 247.92
  L 231.25 248.30
  L 231.41 247.34
  L 231.39 246.97
  L 231.33 246.72
  L 228.14 237.04
  L 224.73 227.45
  L 224.53 227.21
  L 224.31 227.42
  L 224.23 227.66
  L 224.55 228.42"
/>
<path stroke="#494847" vector-effect="non-scaling-stroke" d="
  M 266.80 220.12
  L 266.56 267.71"
/>
<path stroke="#5a5a5a" vector-effect="non-scaling-stroke" d="
  M 272.62 220.09
  L 272.09 238.75
  L 272.28 239.44
  L 272.83 239.90
  L 272.83 239.90
  L 273.33 239.99
  L 294.09 239.29"
/>
<path stroke="#5a5a5a" vector-effect="non-scaling-stroke" d="
  M 300.46 220.07
  L 300.07 244.02
  L 300.41 268.00"
/>
<path stroke="#5a5a5a" vector-effect="non-scaling-stroke" d="
  M 273.04 245.95
  L 272.80 245.50
  L 272.80 245.50
  L 272.54 245.82
  L 272.24 246.83
  L 272.13 247.94
  L 272.28 265.89
  L 272.28 268.00"
/>
<path stroke="#a3a2a2" stroke-opacity="0.996" vector-effect="non-scaling-stroke" d="
  M 236.76 262.78
  L 236.55 263.38"
/>
</g>
<path fill="#a6c3e5" fill-opacity="0.996" d="
  M 127.63 0.00
  L 135.25 0.00
  L 142.63 0.40
  L 149.97 1.13
  L 159.80 2.65
  L 164.45 3.65
  L 169.40 4.99
  L 181.46 9.01
  L 186.12 10.81
  L 190.72 12.84
  L 195.24 15.09
  L 199.70 17.58
  L 204.08 20.29
  L 208.40 23.22
  L 212.65 26.39
  L 216.83 29.78
  L 223.39 35.69
  L 229.48 41.93
  L 235.09 48.50
  L 240.24 55.39
  L 240.24 55.39
  L 245.23 63.14
  L 249.68 71.27
  L 253.59 79.77
  L 256.96 88.65
  L 259.70 97.61
  L 262.20 107.74
  L 263.28 113.74
  L 263.80 118.75
  L 263.98 123.80
  L 263.06 116.38
  L 261.78 109.07
  L 260.15 101.86
  L 258.18 94.76
  L 258.18 94.76
  L 258.18 94.76
  L 254.89 85.17
  L 250.93 75.78
  L 248.25 70.28
  L 245.38 64.98
  L 242.32 59.87
  L 239.07 54.95
  L 235.63 50.22
  L 232.00 45.69
  L 228.18 41.35
  L 224.17 37.21
  L 224.17 37.21
  L 224.17 37.21
  L 224.17 37.21
  L 217.67 31.25
  L 210.73 25.75
  L 203.35 20.69
  L 195.52 16.09
  L 189.46 13.02
  L 183.18 10.26
  L 176.64 7.81
  L 169.97 5.70
  L 163.21 3.95
  L 156.41 2.57
  L 149.62 1.58
  L 142.88 0.97
  L 131.91 0.63
  L 120.00 0.89
  L 119.85 0.85
  L 119.70 0.47
  L 127.63 0.00
  Z"
/>
<path fill="#1a72b9" d="
  M 119.70 0.47
  L 119.85 0.85
  L 120.00 0.89
  L 131.91 0.63
  L 142.88 0.97
  L 149.62 1.58
  L 156.41 2.57
  L 163.21 3.95
  L 169.97 5.70
  L 176.64 7.81
  L 183.18 10.26
  L 189.46 13.02
  L 195.52 16.09
  L 203.35 20.69
  L 210.73 25.75
  L 217.67 31.25
  L 224.17 37.21
  L 224.17 37.21
  L 224.17 37.21
  L 228.18 41.35
  L 232.00 45.69
  L 235.63 50.22
  L 239.07 54.95
  L 242.32 59.87
  L 245.38 64.98
  L 248.25 70.28
  L 250.93 75.78
  L 254.89 85.17
  L 258.18 94.76
  L 258.18 94.76
  L 258.18 94.76
  L 260.15 101.86
  L 261.78 109.07
  L 263.06 116.38
  L 263.98 123.80
  L 264.52 126.79
  L 264.46 129.71
  L 264.40 130.12
  L 264.07 137.13
  L 264.00 142.50
  L 264.47 143.23
  L 264.37 145.75
  L 264.11 145.66
  L 263.85 145.70
  L 263.75 145.93
  L 262.35 155.98
  L 260.23 165.85
  L 260.23 165.85
  L 257.36 175.62
  L 252.56 190.21
  L 252.05 190.91
  L 251.22 191.18
  L 214.30 191.22
  L 213.81 190.97
  L 213.72 190.43
  L 213.80 190.26
  L 217.03 185.42
  L 220.04 180.41
  L 222.83 175.23
  L 225.39 169.88
  L 227.83 163.62
  L 229.66 156.98
  L 230.90 149.95
  L 231.53 142.54
  L 231.54 140.71
  L 231.95 139.07
  L 232.48 133.93
  L 232.27 128.87
  L 232.27 128.87
  L 231.91 126.49
  L 231.48 125.24
  L 231.49 123.56
  L 231.67 121.21
  L 231.37 118.25
  L 230.46 113.43
  L 229.36 108.72
  L 228.07 104.12
  L 226.60 99.63
  L 224.93 95.25
  L 223.08 90.97
  L 221.04 86.81
  L 218.81 82.76
  L 218.81 82.76
  L 218.81 82.76
  L 218.81 82.76
  L 214.43 75.91
  L 209.48 69.40
  L 203.95 63.23
  L 197.84 57.40
  L 190.97 51.79
  L 183.81 46.89
  L 176.37 42.70
  L 168.65 39.21
  L 168.65 39.21
  L 168.65 39.21
  L 164.37 37.62
  L 160.01 36.23
  L 155.37 35.02
  L 150.56 34.05
  L 145.56 33.30
  L 140.38 32.79
  L 134.16 32.49
  L 127.98 32.53
  L 121.85 32.91
  L 115.77 33.62
  L 115.77 33.62
  L 110.50 34.51
  L 105.26 35.66
  L 97.01 38.04
  L 89.16 41.03
  L 81.73 44.64
  L 74.70 48.86
  L 74.70 48.86
  L 74.70 48.86
  L 74.70 48.86
  L 71.07 51.40
  L 67.56 54.12
  L 64.16 57.03
  L 60.89 60.11
  L 57.73 63.37
  L 54.70 66.81
  L 51.79 70.44
  L 48.99 74.24
  L 46.21 78.48
  L 43.68 82.88
  L 41.34 87.57
  L 39.25 92.41
  L 37.37 97.47
  L 35.69 102.84
  L 34.26 108.29
  L 33.05 114.00
  L 32.47 118.16
  L 32.43 121.57
  L 32.23 125.21
  L 31.91 125.14
  L 31.76 125.23
  L 31.64 125.58
  L 31.37 132.89
  L 31.68 139.50
  L 31.88 139.93
  L 32.30 140.02
  L 32.46 141.70
  L 32.46 141.70
  L 32.46 141.70
  L 32.09 142.34
  L 32.08 143.49
  L 33.41 152.21
  L 35.37 160.65
  L 37.97 168.80
  L 41.19 176.66
  L 41.19 176.66
  L 41.19 176.66
  L 41.19 176.66
  L 44.19 182.69
  L 47.59 188.54
  L 51.39 194.21
  L 55.59 199.70
  L 59.76 204.50
  L 64.19 208.94
  L 68.86 213.03
  L 73.78 216.76
  L 73.78 216.76
  L 73.78 216.76
  L 73.78 216.76
  L 77.83 219.45
  L 82.03 221.93
  L 86.39 224.18
  L 90.91 226.22
  L 95.57 228.03
  L 100.39 229.63
  L 105.37 231.01
  L 110.50 232.17
  L 114.45 232.65
  L 118.87 232.61
  L 126.15 232.61
  L 130.16 232.75
  L 130.92 233.09
  L 131.23 233.87
  L 131.24 265.71
  L 131.01 266.27
  L 130.44 266.50
  L 130.43 266.50
  L 120.67 265.92
  L 111.11 264.73
  L 101.76 262.94
  L 92.62 260.53
  L 86.57 258.56
  L 80.63 256.31
  L 74.80 253.77
  L 69.10 250.97
  L 63.54 247.91
  L 58.14 244.58
  L 52.91 241.00
  L 47.86 237.18
  L 43.06 233.17
  L 38.47 228.93
  L 34.16 224.53
  L 30.08 219.93
  L 26.25 215.16
  L 22.67 210.18
  L 19.41 205.11
  L 16.40 199.85
  L 11.75 190.36
  L 7.79 180.45
  L 4.50 170.13
  L 1.90 159.39
  L 1.79 159.23
  L 1.47 158.39
  L 1.41 157.38
  L 0.40 145.55
  L 0.36 145.43
  L 0.24 145.37
  L 0.20 145.36
  L 0.00 145.25
  L 0.00 125.07
  L 0.63 118.78
  L 1.49 112.59
  L 2.60 106.52
  L 3.96 100.55
  L 5.55 94.69
  L 7.39 88.93
  L 9.47 83.29
  L 11.79 77.75
  L 11.79 77.75
  L 11.79 77.75
  L 15.47 70.15
  L 19.62 62.75
  L 24.26 55.58
  L 29.37 48.61
  L 34.87 42.02
  L 40.72 35.90
  L 46.91 30.25
  L 53.45 25.07
  L 53.45 25.07
  L 53.45 25.07
  L 57.76 22.04
  L 62.20 19.20
  L 66.78 16.55
  L 71.50 14.08
  L 76.36 11.80
  L 81.36 9.70
  L 86.49 7.80
  L 91.76 6.08
  L 101.19 3.64
  L 108.89 2.30
  L 110.71 2.03
  L 116.59 0.85
  L 119.70 0.47
  Z"
/>
<path fill="#86b4e9" d="
  M 116.59 0.85
  L 110.71 2.03
  L 108.89 2.30
  L 101.19 3.64
  L 91.76 6.08
  L 86.49 7.80
  L 81.36 9.70
  L 76.36 11.80
  L 71.50 14.08
  L 66.78 16.55
  L 62.20 19.20
  L 57.76 22.04
  L 53.45 25.07
  L 53.45 25.07
  L 53.45 25.07
  L 46.91 30.25
  L 40.72 35.90
  L 34.87 42.02
  L 29.37 48.61
  L 24.26 55.58
  L 19.62 62.75
  L 15.47 70.15
  L 11.79 77.75
  L 11.79 77.75
  L 11.79 77.75
  L 11.79 77.75
  L 9.47 83.29
  L 7.39 88.93
  L 5.55 94.69
  L 3.96 100.55
  L 2.60 106.52
  L 1.49 112.59
  L 0.63 118.78
  L 0.00 125.07
  L 0.00 121.52
  L 0.66 115.67
  L 1.56 109.88
  L 2.69 104.14
  L 4.05 98.48
  L 4.05 98.48
  L 4.05 98.48
  L 6.49 90.23
  L 9.43 82.12
  L 12.87 74.14
  L 16.82 66.29
  L 21.21 58.77
  L 26.02 51.66
  L 31.25 44.96
  L 36.91 38.67
  L 36.91 38.67
  L 42.88 32.88
  L 50.50 26.48
  L 58.44 20.78
  L 66.69 15.77
  L 75.27 11.47
  L 75.27 11.47
  L 75.27 11.47
  L 75.27 11.47
  L 80.10 9.41
  L 85.03 7.56
  L 90.05 5.91
  L 95.17 4.48
  L 100.38 3.26
  L 105.69 2.25
  L 111.09 1.44
  L 116.59 0.85
  Z"
/>
<path fill="#a6c3e5" fill-opacity="0.996" d="
  M 231.49 123.56
  L 230.81 118.25
  L 229.89 113.07
  L 228.74 108.03
  L 227.34 103.13
  L 225.71 98.36
  L 223.84 93.74
  L 221.73 89.25
  L 219.38 84.90
  L 219.38 84.90
  L 219.38 84.90
  L 219.38 84.90
  L 219.27 84.71
  L 214.47 77.14
  L 209.11 70.02
  L 203.28 63.46
  L 196.95 57.42
  L 190.24 52.02
  L 183.09 47.20
  L 175.64 43.07
  L 167.81 39.58
  L 163.13 37.87
  L 158.46 36.45
  L 153.81 35.31
  L 149.17 34.45
  L 144.17 33.78
  L 139.21 33.32
  L 134.29 33.08
  L 129.41 33.05
  L 124.58 33.24
  L 119.79 33.64
  L 115.05 34.26
  L 110.34 35.09
  L 104.50 36.43
  L 98.72 38.11
  L 93.00 40.13
  L 87.36 42.49
  L 82.87 44.68
  L 78.39 47.21
  L 73.99 50.03
  L 69.70 53.12
  L 65.65 56.40
  L 61.81 59.89
  L 58.30 63.47
  L 55.09 67.20
  L 52.01 71.20
  L 49.16 75.26
  L 46.54 79.39
  L 44.14 83.59
  L 41.96 87.84
  L 40.02 92.16
  L 38.30 96.55
  L 36.80 101.00
  L 35.58 105.36
  L 34.44 110.25
  L 32.43 121.57
  L 32.47 118.16
  L 33.05 114.00
  L 34.26 108.29
  L 35.69 102.84
  L 37.37 97.47
  L 39.25 92.41
  L 41.34 87.57
  L 43.68 82.88
  L 46.21 78.48
  L 48.99 74.24
  L 51.79 70.44
  L 54.70 66.81
  L 57.73 63.37
  L 60.89 60.11
  L 64.16 57.03
  L 67.56 54.12
  L 71.07 51.40
  L 74.70 48.86
  L 74.70 48.86
  L 74.70 48.86
  L 74.70 48.86
  L 74.70 48.86
  L 81.73 44.64
  L 89.16 41.03
  L 97.01 38.04
  L 105.26 35.66
  L 110.50 34.51
  L 115.77 33.62
  L 115.77 33.62
  L 115.77 33.62
  L 121.85 32.91
  L 127.98 32.53
  L 134.16 32.49
  L 140.38 32.79
  L 145.56 33.30
  L 150.56 34.05
  L 155.37 35.02
  L 160.01 36.23
  L 164.37 37.62
  L 168.65 39.21
  L 168.65 39.21
  L 168.65 39.21
  L 176.37 42.70
  L 183.81 46.89
  L 190.97 51.79
  L 197.84 57.40
  L 203.95 63.23
  L 209.48 69.40
  L 214.43 75.91
  L 218.81 82.76
  L 218.81 82.76
  L 218.81 82.76
  L 218.81 82.76
  L 218.81 82.76
  L 218.81 82.76
  L 221.04 86.81
  L 223.08 90.97
  L 224.93 95.25
  L 226.60 99.63
  L 228.07 104.12
  L 229.36 108.72
  L 230.46 113.43
  L 231.37 118.25
  L 231.67 121.21
  L 231.49 123.56
  Z"
/>
<path fill="#92908f" fill-opacity="0.996" d="
  M 137.97 92.26
  L 136.64 89.59
  L 136.53 89.33
  L 135.70 87.74
  L 134.69 86.38
  L 133.50 85.20
  L 132.07 84.14
  L 130.50 83.28
  L 128.79 82.61
  L 126.99 82.14
  L 125.03 81.86
  L 123.05 81.79
  L 111.62 81.91
  L 99.97 81.81
  L 99.36 82.02
  L 99.03 82.57
  L 87.78 140.02
  L 88.68 133.01
  L 89.88 126.06
  L 92.60 112.22
  L 95.40 97.73
  L 98.23 82.48
  L 98.43 81.92
  L 98.81 81.45
  L 99.32 81.15
  L 99.91 81.04
  L 121.46 80.96
  L 124.79 81.13
  L 127.65 81.67
  L 130.39 82.59
  L 132.62 83.71
  L 134.46 85.06
  L 135.95 86.72
  L 136.70 87.93
  L 137.29 89.29
  L 137.97 92.26
  Z"
/>
<path fill="#000000" d="
  M 137.97 92.26
  L 138.30 95.66
  L 138.01 98.74
  L 137.16 100.98
  L 136.10 102.99
  L 134.83 104.78
  L 133.36 106.34
  L 133.36 106.34
  L 133.36 106.34
  L 131.29 107.94
  L 128.91 109.21
  L 128.56 109.52
  L 128.88 109.85
  L 131.66 111.50
  L 133.57 113.18
  L 134.83 114.92
  L 136.07 117.75
  L 136.60 120.98
  L 136.37 124.42
  L 135.44 127.80
  L 133.80 131.13
  L 131.58 134.06
  L 128.89 136.43
  L 126.00 138.01
  L 123.38 138.86
  L 119.28 139.90
  L 87.78 140.02
  L 99.03 82.57
  L 99.36 82.02
  L 99.97 81.81
  L 111.62 81.91
  L 123.05 81.79
  L 125.03 81.86
  L 126.99 82.14
  L 128.79 82.61
  L 130.50 83.28
  L 132.07 84.14
  L 133.50 85.20
  L 134.69 86.38
  L 135.70 87.74
  L 136.53 89.33
  L 136.64 89.59
  L 137.97 92.26
  Z
  M 108.16 93.23
  L 108.21 94.00
  L 108.00 94.09
  L 107.63 94.74
  L 106.00 104.02
  L 106.04 104.25
  L 106.61 104.34
  L 106.41 104.42
  L 106.39 104.45
  L 106.37 104.58
  L 106.49 104.65
  L 109.92 105.03
  L 113.34 105.05
  L 113.34 105.05
  L 116.54 104.75
  L 119.33 104.81
  L 121.68 104.46
  L 123.60 103.71
  L 125.07 102.55
  L 125.07 102.55
  L 125.07 102.55
  L 125.89 101.42
  L 126.46 100.06
  L 126.79 98.47
  L 126.87 96.66
  L 126.54 94.70
  L 125.68 93.25
  L 125.68 93.25
  L 125.61 93.18
  L 124.26 92.11
  L 122.78 91.45
  L 121.41 91.22
  L 115.67 91.10
  L 109.16 91.29
  L 108.74 91.40
  L 108.44 91.64
  L 108.17 92.08
  L 108.16 93.23
  Z
  M 114.14 114.99
  L 104.61 115.21
  L 103.92 115.49
  L 103.55 116.13
  L 100.95 129.33
  L 100.96 129.84
  L 101.16 130.30
  L 101.54 130.64
  L 102.02 130.80
  L 102.02 130.80
  L 102.11 130.81
  L 109.26 130.84
  L 117.19 130.24
  L 119.75 129.74
  L 121.62 128.93
  L 122.75 128.05
  L 123.68 127.00
  L 124.41 125.81
  L 124.93 124.53
  L 125.22 123.18
  L 125.27 121.79
  L 125.07 120.42
  L 124.62 119.09
  L 123.67 117.61
  L 122.19 116.39
  L 120.20 115.57
  L 117.63 115.12
  L 114.14 114.99
  Z"
/>
<path fill="#92908f" fill-opacity="0.996" d="
  M 116.54 104.75
  L 119.32 104.05
  L 122.42 103.23
  L 123.56 102.66
  L 124.43 101.99
  L 125.14 101.20
  L 125.76 100.20
  L 126.21 99.05
  L 126.42 97.89
  L 126.36 96.61
  L 126.02 95.31
  L 125.15 93.84
  L 125.15 93.84
  L 125.15 93.84
  L 124.30 93.12
  L 123.24 92.58
  L 121.97 92.24
  L 120.49 92.09
  L 110.25 92.07
  L 109.07 92.37
  L 108.16 93.23
  L 108.17 92.08
  L 108.44 91.64
  L 108.74 91.40
  L 109.16 91.29
  L 115.67 91.10
  L 121.41 91.22
  L 122.78 91.45
  L 124.26 92.11
  L 125.61 93.18
  L 125.68 93.25
  L 126.54 94.70
  L 126.87 96.66
  L 126.79 98.47
  L 126.46 100.06
  L 125.89 101.42
  L 125.07 102.55
  L 125.07 102.55
  L 123.60 103.71
  L 121.68 104.46
  L 119.33 104.81
  L 116.54 104.75
  Z"
/>
<path fill="#92908f" fill-opacity="0.996" d="
  M 108.21 94.00
  L 106.61 104.34
  L 106.04 104.25
  L 106.00 104.02
  L 107.63 94.74
  L 108.00 94.09
  L 108.21 94.00
  Z"
/>
<path fill="#92908f" fill-opacity="0.996" d="
  M 138.01 98.74
  L 137.99 100.35
  L 137.65 101.85
  L 137.65 101.85
  L 136.59 103.82
  L 133.77 106.94
  L 132.21 108.22
  L 130.55 109.32
  L 130.36 109.55
  L 130.56 109.76
  L 132.26 110.83
  L 133.68 112.10
  L 134.93 113.70
  L 135.89 115.46
  L 136.59 117.47
  L 136.98 119.59
  L 137.09 121.91
  L 136.89 124.26
  L 136.38 126.69
  L 135.59 129.02
  L 134.35 131.59
  L 132.89 133.82
  L 131.19 135.69
  L 129.26 137.23
  L 129.26 137.23
  L 129.26 137.23
  L 129.26 137.23
  L 127.11 138.41
  L 124.73 139.25
  L 122.12 139.75
  L 119.28 139.90
  L 123.38 138.86
  L 126.00 138.01
  L 128.89 136.43
  L 131.58 134.06
  L 133.80 131.13
  L 135.44 127.80
  L 136.37 124.42
  L 136.60 120.98
  L 136.07 117.75
  L 134.83 114.92
  L 133.57 113.18
  L 131.66 111.50
  L 128.88 109.85
  L 128.56 109.52
  L 128.91 109.21
  L 131.29 107.94
  L 133.36 106.34
  L 133.36 106.34
  L 133.36 106.34
  L 134.83 104.78
  L 136.10 102.99
  L 137.16 100.98
  L 138.01 98.74
  Z"
/>
<path fill="#92908f" fill-opacity="0.996" d="
  M 114.14 114.99
  L 117.63 115.12
  L 120.20 115.57
  L 122.19 116.39
  L 123.67 117.61
  L 124.62 119.09
  L 125.07 120.42
  L 125.27 121.79
  L 125.22 123.18
  L 124.93 124.53
  L 124.41 125.81
  L 123.68 127.00
  L 122.75 128.05
  L 121.62 128.93
  L 119.75 129.74
  L 117.19 130.24
  L 109.26 130.84
  L 102.11 130.81
  L 102.02 130.80
  L 101.54 130.64
  L 101.16 130.30
  L 100.96 129.84
  L 100.95 129.33
  L 103.55 116.13
  L 103.92 115.49
  L 104.61 115.21
  L 114.14 114.99
  Z
  M 103.15 129.92
  L 109.57 130.17
  L 116.24 129.98
  L 117.90 129.71
  L 119.54 129.11
  L 121.09 128.23
  L 122.47 127.11
  L 123.56 125.84
  L 124.37 124.44
  L 124.81 123.03
  L 124.89 121.55
  L 124.51 119.92
  L 123.58 118.28
  L 122.70 117.43
  L 121.41 116.72
  L 119.91 116.27
  L 118.23 116.08
  L 105.03 116.03
  L 104.62 116.16
  L 104.40 116.52
  L 103.00 122.52
  L 102.03 128.56
  L 102.04 129.12
  L 102.23 129.53
  L 102.23 129.53
  L 102.60 129.80
  L 103.15 129.92
  Z"
/>
<path fill="#92908f" fill-opacity="0.996" d="
  M 154.30 168.94
  L 153.98 168.87
  L 162.72 121.60
  L 162.60 121.07
  L 162.12 120.80
  L 162.06 120.80
  L 153.10 120.83
  L 152.17 121.16
  L 151.66 122.01
  L 140.75 176.68
  L 151.34 120.57
  L 151.57 120.13
  L 152.06 119.98
  L 162.41 120.07
  L 162.90 120.24
  L 163.07 120.70
  L 163.02 123.07
  L 162.68 125.34
  L 159.30 142.70
  L 155.70 161.06
  L 155.15 165.01
  L 154.96 166.28
  L 154.30 168.94
  Z"
/>
<path fill="#92908f" fill-opacity="0.996" d="
  M 187.37 169.13
  L 187.33 169.23
  L 186.85 169.49
  L 185.92 169.47
  L 185.90 169.47
  L 185.34 169.12
  L 185.21 168.47
  L 194.16 121.74
  L 194.03 121.18
  L 193.54 120.90
  L 193.54 120.90
  L 193.47 120.90
  L 184.01 120.84
  L 183.50 121.02
  L 183.22 121.49
  L 174.40 167.50
  L 174.36 167.58
  L 174.28 167.62
  L 174.09 167.80
  L 182.46 121.79
  L 182.72 121.08
  L 183.20 120.51
  L 183.86 120.13
  L 184.60 120.00
  L 194.26 120.01
  L 194.33 120.01
  L 194.85 120.31
  L 194.99 120.90
  L 186.00 167.75
  L 186.05 168.36
  L 186.50 168.84
  L 187.37 169.13
  Z"
/>
<path fill="#000000" d="
  M 153.98 168.87
  L 153.81 169.05
  L 153.81 169.20
  L 153.94 169.27
  L 154.09 169.29
  L 157.05 169.47
  L 160.08 169.13
  L 172.55 168.92
  L 173.30 168.80
  L 173.81 168.47
  L 174.09 167.80
  L 174.28 167.62
  L 174.36 167.58
  L 174.40 167.50
  L 183.22 121.49
  L 183.50 121.02
  L 184.01 120.84
  L 193.47 120.90
  L 193.54 120.90
  L 194.03 121.18
  L 194.16 121.74
  L 185.21 168.47
  L 185.34 169.12
  L 185.90 169.47
  L 185.90 169.47
  L 185.92 169.47
  L 186.85 169.49
  L 187.33 169.23
  L 187.33 169.23
  L 187.37 169.13
  L 189.02 168.82
  L 189.46 168.92
  L 189.79 169.28
  L 189.88 169.51
  L 189.95 169.95
  L 186.62 187.89
  L 176.99 187.51
  L 178.77 180.17
  L 178.79 180.07
  L 178.58 179.39
  L 177.93 179.09
  L 142.05 179.21
  L 141.43 179.07
  L 141.01 178.70
  L 140.70 177.87
  L 140.75 176.68
  L 151.66 122.01
  L 152.17 121.16
  L 153.10 120.83
  L 162.06 120.80
  L 162.12 120.80
  L 162.60 121.07
  L 162.72 121.60
  L 153.98 168.87
  Z"
/>
<path fill="#86b4e9" d="
  M 32.23 125.21
  L 32.30 140.02
  L 31.88 139.93
  L 31.68 139.50
  L 31.37 132.89
  L 31.64 125.58
  L 31.76 125.23
  L 31.91 125.14
  L 32.23 125.21
  Z"
/>
<path fill="#86b4e9" d="
  M 231.91 126.49
  L 232.27 128.87
  L 232.48 133.93
  L 231.95 139.07
  L 231.91 126.49
  Z"
/>
<path fill="#a6c3e5" fill-opacity="0.996" d="
  M 264.40 130.12
  L 264.80 134.22
  L 264.86 138.32
  L 264.47 143.23
  L 264.00 142.50
  L 264.07 137.13
  L 264.40 130.12
  Z"
/>
<path fill="#a6c3e5" fill-opacity="0.996" d="
  M 32.46 141.70
  L 33.06 146.73
  L 33.87 151.67
  L 34.88 156.50
  L 36.09 161.23
  L 37.51 165.86
  L 39.12 170.39
  L 40.94 174.83
  L 42.96 179.16
  L 42.96 179.16
  L 42.96 179.16
  L 45.60 184.13
  L 48.53 188.97
  L 51.73 193.67
  L 55.22 198.23
  L 60.00 203.73
  L 65.08 208.77
  L 70.47 213.35
  L 76.16 217.48
  L 83.26 221.77
  L 90.78 225.42
  L 98.73 228.44
  L 107.10 230.82
  L 112.96 231.80
  L 118.87 232.61
  L 114.45 232.65
  L 110.50 232.17
  L 105.37 231.01
  L 100.39 229.63
  L 95.57 228.03
  L 90.91 226.22
  L 86.39 224.18
  L 82.03 221.93
  L 77.83 219.45
  L 73.78 216.76
  L 73.78 216.76
  L 73.78 216.76
  L 68.86 213.03
  L 64.19 208.94
  L 59.76 204.50
  L 55.59 199.70
  L 51.39 194.21
  L 47.59 188.54
  L 44.19 182.69
  L 41.19 176.66
  L 41.19 176.66
  L 41.19 176.66
  L 41.19 176.66
  L 37.97 168.80
  L 35.37 160.65
  L 33.41 152.21
  L 32.08 143.49
  L 32.09 142.34
  L 32.46 141.70
  L 32.46 141.70
  L 32.46 141.70
  Z"
/>
<path fill="#a6c3e5" fill-opacity="0.996" d="
  M 231.53 142.54
  L 230.90 149.95
  L 229.66 156.98
  L 227.83 163.62
  L 225.39 169.88
  L 222.83 175.23
  L 220.04 180.41
  L 217.03 185.42
  L 213.80 190.26
  L 213.72 190.43
  L 213.81 190.97
  L 214.30 191.22
  L 251.22 191.18
  L 252.05 190.91
  L 252.56 190.21
  L 257.36 175.62
  L 260.23 165.85
  L 260.23 165.85
  L 262.35 155.98
  L 263.75 145.93
  L 263.85 145.70
  L 264.11 145.66
  L 264.37 145.75
  L 263.53 152.70
  L 262.45 159.18
  L 261.12 165.20
  L 259.53 170.74
  L 252.85 191.19
  L 252.43 191.81
  L 251.69 192.03
  L 213.73 192.00
  L 213.18 191.73
  L 213.06 191.14
  L 213.06 191.14
  L 213.12 190.98
  L 217.50 183.39
  L 221.86 175.85
  L 224.61 170.03
  L 227.12 163.18
  L 227.12 163.18
  L 228.61 158.15
  L 229.84 153.03
  L 230.82 147.83
  L 231.53 142.54
  Z"
/>
<path fill="#86b4e9" d="
  M 0.00 145.25
  L 0.20 145.36
  L 0.24 145.37
  L 0.36 145.43
  L 0.40 145.55
  L 1.41 157.38
  L 0.00 145.87
  L 0.00 145.25
  Z"
/>
<path fill="#a6c3e5" fill-opacity="0.996" d="
  M 1.90 159.39
  L 4.50 170.13
  L 7.79 180.45
  L 11.75 190.36
  L 16.40 199.85
  L 19.41 205.11
  L 22.67 210.18
  L 26.25 215.16
  L 30.08 219.93
  L 34.16 224.53
  L 38.47 228.93
  L 43.06 233.17
  L 47.86 237.18
  L 52.91 241.00
  L 58.14 244.58
  L 63.54 247.91
  L 69.10 250.97
  L 74.80 253.77
  L 80.63 256.31
  L 86.57 258.56
  L 92.62 260.53
  L 101.76 262.94
  L 111.11 264.73
  L 120.67 265.92
  L 130.43 266.50
  L 130.44 266.50
  L 131.01 266.27
  L 131.24 265.71
  L 131.23 233.87
  L 130.92 233.09
  L 130.16 232.75
  L 126.15 232.61
  L 128.74 232.03
  L 131.06 232.04
  L 131.73 232.41
  L 132.00 233.13
  L 132.02 265.79
  L 132.02 265.81
  L 131.91 266.32
  L 131.61 266.74
  L 131.18 267.01
  L 130.67 267.09
  L 119.51 266.33
  L 119.51 266.33
  L 109.58 265.00
  L 99.72 263.04
  L 89.66 260.33
  L 85.08 258.79
  L 80.81 257.12
  L 74.37 254.25
  L 68.19 251.17
  L 62.28 247.87
  L 56.62 244.35
  L 51.23 240.62
  L 46.09 236.67
  L 41.22 232.51
  L 36.61 228.13
  L 31.47 222.67
  L 26.72 216.98
  L 22.35 211.06
  L 18.37 204.90
  L 18.37 204.90
  L 18.37 204.90
  L 18.37 204.90
  L 15.42 199.75
  L 12.73 194.44
  L 10.30 188.98
  L 8.11 183.37
  L 6.18 177.60
  L 4.50 171.68
  L 3.07 165.61
  L 1.90 159.39
  Z"
/>
<path fill="#383536" d="
  M 153.98 168.87
  L 154.30 168.94
  L 160.08 169.13
  L 157.05 169.47
  L 154.09 169.29
  L 154.09 169.29
  L 153.94 169.27
  L 153.81 169.20
  L 153.81 169.05
  L 153.98 168.87
  Z"
/>
<path fill="#b4b4b4" fill-opacity="0.996" d="
  M 189.95 169.95
  L 186.62 187.89
  L 189.95 169.95
  Z"
/>
<path fill="#b4b4b4" fill-opacity="0.996" d="
  M 140.75 176.68
  L 140.70 177.87
  L 141.01 178.70
  L 141.43 179.07
  L 142.05 179.21
  L 177.93 179.09
  L 178.58 179.39
  L 178.79 180.07
  L 178.79 180.07
  L 178.77 180.17
  L 176.99 187.51
  L 178.02 180.81
  L 177.88 180.26
  L 177.38 180.00
  L 177.33 180.00
  L 141.04 180.00
  L 140.36 179.74
  L 140.02 179.08
  L 140.14 177.92
  L 140.75 176.68
  Z"
/>
<path fill="#000000" d="
  M 156.40 220.23
  L 174.30 220.34
  L 176.69 220.80
  L 178.81 221.53
  L 180.67 222.54
  L 182.27 223.82
  L 182.27 223.82
  L 182.27 223.82
  L 183.57 225.33
  L 184.62 227.10
  L 185.41 229.12
  L 185.96 231.41
  L 186.01 233.60
  L 186.11 234.81
  L 186.47 235.81
  L 186.40 236.08
  L 186.40 237.45
  L 184.19 241.99
  L 183.44 243.39
  L 182.50 244.61
  L 182.50 244.61
  L 181.36 245.65
  L 180.03 246.51
  L 178.51 247.20
  L 176.79 247.71
  L 170.15 248.99
  L 159.76 249.02
  L 159.19 249.26
  L 158.95 249.83
  L 158.80 268.00
  L 153.67 268.00
  L 153.19 267.64
  L 152.98 267.24
  L 152.98 267.24
  L 153.13 266.61
  L 153.97 253.86
  L 154.11 241.12
  L 153.88 234.11
  L 153.50 222.00
  L 153.59 221.28
  L 153.88 220.72
  L 153.88 220.72
  L 154.46 220.27
  L 155.52 220.07
  L 156.40 220.23
  Z
  M 159.03 241.99
  L 159.35 242.54
  L 159.76 242.86
  L 160.25 242.96
  L 170.79 242.73
  L 174.22 242.38
  L 176.50 241.64
  L 177.65 240.85
  L 178.53 239.88
  L 178.53 239.88
  L 178.53 239.88
  L 179.36 238.16
  L 179.65 236.05
  L 179.76 234.64
  L 179.57 233.31
  L 179.77 231.58
  L 179.43 230.29
  L 178.67 229.05
  L 176.85 227.31
  L 175.88 226.76
  L 174.85 226.43
  L 174.85 226.43
  L 173.20 226.33
  L 159.78 226.13
  L 159.15 226.38
  L 158.90 227.01
  L 159.03 241.99
  Z"
/>
<path fill="#383536" d="
  M 156.40 220.23
  L 173.52 219.99
  L 173.69 220.23
  L 174.30 220.34
  L 156.40 220.23
  Z"
/>
<path fill="#b4b4b4" fill-opacity="0.996" d="
  M 173.52 219.99
  L 176.01 220.15
  L 178.24 220.62
  L 180.21 221.42
  L 181.91 222.54
  L 181.91 222.54
  L 181.91 222.54
  L 183.26 223.87
  L 184.38 225.47
  L 185.28 227.35
  L 185.95 229.50
  L 186.47 232.68
  L 186.47 235.81
  L 186.11 234.81
  L 186.01 233.60
  L 185.96 231.41
  L 185.41 229.12
  L 184.62 227.10
  L 183.57 225.33
  L 182.27 223.82
  L 182.27 223.82
  L 182.27 223.82
  L 182.27 223.82
  L 180.67 222.54
  L 178.81 221.53
  L 176.69 220.80
  L 174.30 220.34
  L 173.69 220.23
  L 173.52 219.99
  Z"
/>
<path fill="#000000" d="
  M 228.64 220.88
  L 228.16 221.20
  L 228.17 221.24
  L 243.81 264.12
  L 244.25 265.05
  L 244.96 266.68
  L 245.07 268.00
  L 238.64 268.00
  L 237.91 267.12
  L 237.66 266.25
  L 237.47 264.57
  L 236.76 262.78
  L 236.04 260.43
  L 234.10 255.13
  L 233.51 254.10
  L 232.83 253.68
  L 232.18 253.82
  L 220.96 253.92
  L 218.60 253.59
  L 216.36 253.74
  L 215.87 253.97
  L 215.57 254.45
  L 211.43 268.05
  L 211.24 268.00
  L 205.98 268.00
  L 205.22 267.60
  L 204.97 267.22
  L 204.97 267.22
  L 205.02 267.06
  L 205.60 266.27
  L 213.58 243.39
  L 221.14 220.36
  L 223.94 219.89
  L 226.57 220.13
  L 226.57 220.13
  L 228.64 220.88
  Z
  M 224.55 228.42
  L 224.18 228.46
  L 224.02 228.81
  L 224.09 229.47
  L 217.98 247.83
  L 231.05 247.92
  L 231.25 248.30
  L 231.41 247.34
  L 231.39 246.97
  L 231.33 246.72
  L 228.14 237.04
  L 224.73 227.45
  L 224.53 227.21
  L 224.31 227.42
  L 224.23 227.66
  L 224.55 228.42
  Z"
/>
<path fill="#92908f" fill-opacity="0.996" d="
  M 266.80 220.12
  L 266.56 267.71
  L 266.17 267.36
  L 266.09 267.00
  L 266.10 221.25
  L 266.20 220.56
  L 266.48 220.19
  L 266.80 220.12
  Z"
/>
<path fill="#000000" d="
  M 266.80 220.12
  L 272.62 220.09
  L 272.09 238.75
  L 272.28 239.44
  L 272.83 239.90
  L 272.83 239.90
  L 273.33 239.99
  L 294.09 239.29
  L 294.08 221.45
  L 294.17 220.81
  L 294.45 220.35
  L 294.45 220.35
  L 294.91 220.08
  L 295.55 220.00
  L 300.46 220.07
  L 300.07 244.02
  L 300.41 268.00
  L 294.25 268.00
  L 293.95 246.51
  L 293.83 246.14
  L 293.45 246.01
  L 273.04 245.95
  L 272.80 245.50
  L 272.80 245.50
  L 272.54 245.82
  L 272.24 246.83
  L 272.13 247.94
  L 272.28 265.89
  L 272.28 268.00
  L 266.89 268.00
  L 266.89 267.97
  L 266.56 267.71
  L 266.80 220.12
  Z"
/>
<path fill="#b4b4b4" fill-opacity="0.996" d="
  M 294.09 239.29
  L 273.33 239.99
  L 272.75 239.86
  L 272.26 239.40
  L 272.09 238.75
  L 272.62 220.09
  L 273.05 238.43
  L 273.18 238.79
  L 273.54 238.92
  L 294.09 239.29
  Z"
/>
<path fill="#b4b4b4" fill-opacity="0.996" d="
  M 300.46 220.07
  L 301.00 221.38
  L 301.00 268.00
  L 300.41 268.00
  L 300.07 244.02
  L 300.46 220.07
  Z"
/>
<path fill="#383536" d="
  M 154.46 220.27
  L 153.88 220.72
  L 153.88 220.72
  L 153.59 221.28
  L 153.50 222.00
  L 153.88 234.11
  L 154.11 241.12
  L 153.97 253.86
  L 153.13 266.61
  L 153.11 220.81
  L 153.25 220.38
  L 153.64 220.20
  L 154.46 220.27
  Z"
/>
<path fill="#b4b4b4" fill-opacity="0.996" d="
  M 221.14 220.36
  L 213.58 243.39
  L 205.60 266.27
  L 205.02 267.06
  L 205.05 266.39
  L 205.09 266.26
  L 211.18 248.30
  L 212.67 243.81
  L 216.69 231.98
  L 221.14 220.36
  Z"
/>
<path fill="#92908f" fill-opacity="0.996" d="
  M 228.64 220.88
  L 245.74 268.00
  L 245.07 268.00
  L 244.96 266.68
  L 244.25 265.05
  L 243.81 264.12
  L 228.17 221.24
  L 228.16 221.20
  L 228.64 220.88
  Z"
/>
<path fill="#b4b4b4" fill-opacity="0.996" d="
  M 179.57 233.31
  L 178.93 231.19
  L 177.87 229.40
  L 177.87 229.40
  L 176.96 228.42
  L 175.88 227.59
  L 173.20 226.33
  L 174.85 226.43
  L 174.85 226.43
  L 174.85 226.43
  L 175.88 226.76
  L 176.85 227.31
  L 178.67 229.05
  L 179.43 230.29
  L 179.77 231.58
  L 179.57 233.31
  Z"
/>
<path fill="#92908f" fill-opacity="0.996" d="
  M 231.05 247.92
  L 224.55 228.42
  L 224.23 227.66
  L 224.31 227.42
  L 224.53 227.21
  L 224.73 227.45
  L 228.14 237.04
  L 231.33 246.72
  L 231.39 246.97
  L 231.41 247.34
  L 231.25 248.30
  L 231.05 247.92
  Z"
/>
<path fill="#92908f" fill-opacity="0.996" d="
  M 224.09 229.47
  L 217.98 247.83
  L 224.09 229.47
  Z"
/>
<path fill="#b4b4b4" fill-opacity="0.996" d="
  M 179.65 236.05
  L 179.36 238.16
  L 178.53 239.88
  L 178.53 239.88
  L 177.65 240.85
  L 176.50 241.64
  L 174.22 242.38
  L 170.79 242.73
  L 160.25 242.96
  L 159.76 242.86
  L 159.35 242.54
  L 159.03 241.99
  L 172.25 241.96
  L 174.90 241.53
  L 176.03 241.06
  L 177.02 240.42
  L 177.02 240.42
  L 177.88 239.59
  L 178.61 238.58
  L 179.65 236.05
  Z"
/>
<path fill="#b4b4b4" fill-opacity="0.996" d="
  M 186.40 237.45
  L 185.84 239.74
  L 185.02 241.78
  L 183.96 243.56
  L 182.65 245.09
  L 180.31 246.87
  L 177.45 248.11
  L 174.06 248.82
  L 170.15 248.99
  L 176.79 247.71
  L 178.51 247.20
  L 180.03 246.51
  L 181.36 245.65
  L 182.50 244.61
  L 182.50 244.61
  L 183.44 243.39
  L 184.19 241.99
  L 186.40 237.45
  Z"
/>
<path fill="#b4b4b4" fill-opacity="0.996" d="
  M 273.04 245.95
  L 272.91 268.00
  L 272.28 268.00
  L 272.28 265.89
  L 272.13 247.94
  L 272.24 246.83
  L 272.54 245.82
  L 272.80 245.50
  L 272.80 245.50
  L 273.04 245.95
  Z"
/>
<path fill="#92908f" fill-opacity="0.996" d="
  M 220.96 253.92
  L 217.01 254.12
  L 216.60 254.27
  L 216.34 254.62
  L 211.43 268.05
  L 215.57 254.45
  L 215.87 253.97
  L 216.36 253.74
  L 218.60 253.59
  L 220.96 253.92
  Z"
/>
<path fill="#b4b4b4" fill-opacity="0.996" d="
  M 236.76 262.78
  L 236.55 263.38
  L 235.71 260.53
  L 234.71 257.99
  L 233.53 255.75
  L 232.18 253.82
  L 232.83 253.68
  L 233.51 254.10
  L 234.10 255.13
  L 236.04 260.43
  L 236.76 262.78
  Z"
/>
<path fill="#92908f" fill-opacity="0.996" d="
  M 236.76 262.78
  L 237.47 264.57
  L 237.66 266.25
  L 236.55 263.38
  L 236.76 262.78
  Z"
/>
</svg>
