<!DOCTYPE svg PUBLIC "-//W3C//DTD SVG 1.1//EN" "http://www.w3.org/Graphics/SVG/1.1/DTD/svg11.dtd">

<svg xmlns="http://www.w3.org/2000/svg" viewBox="0 0 301 268">

<path fill="#fbfbfb" stroke="#fbfbfb" d="M110.5 1.515C44.956 12.131 0 66.235 0 134.5c0 70 48.004 123.235 118.655 131.586 14.444 1.707 13.443 2.984 13.119-16.731l-.274-16.688-10-.259c-51.268-1.326-92.4-50.312-89.184-106.214 3.26-56.665 47.096-95.585 104.626-92.891 76.055 3.561 120.337 88.381 79.483 152.246-4.383 6.852-5.199 6.562 17.554 6.224l18.414-.273 4.225-13c6.523-20.07 7.693-26.806 7.641-44-.2-65.796-43.675-119.72-106.443-132.029C146.127.179 121.785-.313 110.5 1.515M98.584 82.158c-.676 2.14-10.615 55.209-10.599 56.592.012.951 4.096 1.25 17.047 1.25 21.741 0 25.938-1.465 30.087-10.5 3.458-7.531 1.331-17.27-4.151-19.01-2.085-.662-2.05-.762.882-2.545 8.395-5.105 8.323-20.092-.117-24.662-4.305-2.331-32.466-3.286-33.149-1.125M108.69 92.75c-.235.412-.735 2.55-1.112 4.75-.377 2.2-.938 4.855-1.247 5.901-.528 1.789-.081 1.868 7.59 1.342 8.532-.585 10.682-1.569 12.21-5.587 1.879-4.942-1.089-7.156-9.595-7.156-4.08 0-7.61.338-7.846.75m-5.678 29c-.622 3.162-1.314 6.313-1.54 7-.533 1.627 15.349 1.744 18.871.14 4.513-2.057 5.882-7.665 2.657-10.89-1.684-1.684-3.333-2-10.429-2h-8.429l-1.13 5.75m48.469-.5c-1.046 2.866-11.169 57.313-10.783 58 .231.412 8.776.75 18.989.75h18.569l-.64 4-.64 4h9.75l1.638-8.25C190.43 169.342 190.418 169 188 169c-2.592 0-2.704 1.143 2.495-25.5 2.468-12.65 4.492-23.112 4.496-23.25.005-.138-2.642-.25-5.883-.25-5.281 0-5.948.233-6.438 2.25-.865 3.553-8.67 44.82-8.67 45.836 0 .503-4.509.914-10.019.914-9.884 0-10.012-.03-9.478-2.25 1.036-4.304 8.497-44.256 8.497-45.499 0-1.726-10.889-1.726-11.519-.001M153 244v24h6v-19l8.25-.002c13.281-.002 18.981-4.488 18.981-14.938 0-10.925-4.823-14.06-21.632-14.06H153v24m66.725-19.804C214.171 240.134 205 267.117 205 267.517c0 .266 1.486.483 3.303.483 3.208 0 3.368-.201 5.558-7l2.254-7h17.491l2.255 7 2.254 7h7.587l-8.684-23.75-8.683-23.75-3.555-.304c-3.378-.288-3.63-.089-5.055 4M266 244v24h7v-22h21v22h7v-48h-7v19h-21v-19h-7v24m-107-10v8h8.427c11.31 0 15.15-4.116 11.116-11.916-1.654-3.2-4.612-4.084-13.668-4.084H159v8m62.365 4.107L218.229 248h6.386c3.512 0 6.385-.378 6.385-.84 0-.775-5.966-18.481-6.336-18.803-.09-.078-1.575 4.309-3.299 9.75" fill-rule="evenodd"/>

<path fill="#1d74bc" stroke="#1d74bc" d="M112 1.666C45.402 12.155.821 65.103.579 134 .328 205.451 50.693 260.148 121.98 265.844l9.02.721V233h-8.042c-66.457 0-111.516-79.472-81.985-144.601C71.716 20.597 169.454 12.723 213.491 74.5c13.121 18.406 17.879 33.779 17.954 58 .072 23.666-2.884 34.776-13.791 51.826-2.01 3.142-3.654 5.939-3.654 6.215 0 .276 8.622.38 19.16.231l19.16-.272 2.888-8.5c6.85-20.158 8.24-28.06 8.267-47 .096-67.285-44.433-121.68-108.401-132.418C146.402 1.127 119.111.546 112 1.666M98.696 83.142C97.916 86.342 88 138.505 88 139.408c0 1.753 35.4.142 39.284-1.788 10.051-4.994 12.496-19.928 4.316-26.363l-2.441-1.92 2.926-1.728c8.494-5.018 7.725-19.468-1.291-24.264-2.556-1.361-6.454-1.843-17.409-2.157l-14.114-.403-.575 2.357m8.884 13.108c-.372 2.338-.928 5.263-1.236 6.5-1.191 4.781 17.282 2.56 19.518-2.347 2.872-6.303.421-8.403-9.806-8.403h-7.8l-.676 4.25m-3.938 21.5c-.271.963-.785 3.325-1.142 5.25-.357 1.925-.871 4.287-1.142 5.25-.894 3.174 17.935 2.548 21.187-.705 2.938-2.937 3.228-7.535.626-9.89-2.749-2.488-18.824-2.41-19.529.095m47.902 3.5c-.627 1.991-10.546 55.118-10.545 56.478.001.917 4.746 1.297 18.751 1.5 11.754.17 18.705.645 18.631 1.272-.066.55-.392 2.463-.725 4.25l-.606 3.25h9.657l1.194-7.25c.656-3.988 1.446-8.262 1.755-9.5.467-1.874.151-2.25-1.891-2.25h-2.452l4.334-22.25c5.543-28.458 5.58-26.75-.588-26.75-2.718 0-5.207.431-5.532.957-.445.72-9.527 46.244-9.527 47.755 0 .158-4.5.288-10 .288s-10-.195-10-.434 2.023-10.926 4.497-23.75c2.473-12.824 4.498-23.654 4.5-24.066.006-1.336-11.027-.854-11.453.5M153 244v24h6v-19l7.75-.022c13.69-.039 19.256-4.433 19.246-15.196-.009-10.287-5.579-13.782-21.964-13.782H153v24m60.539-1.25c-4.291 12.512-8.015 23.313-8.277 24-.323.849.621 1.25 2.946 1.25 3.367 0 3.454-.109 5.361-6.75l1.938-6.75 9.177-.287 9.177-.286 2.266 7.036c2.203 6.838 2.36 7.037 5.57 7.037 1.817 0 3.303-.288 3.303-.64 0-.512-13.874-38.788-16.532-45.61-.453-1.164-1.762-1.75-3.905-1.75h-3.223l-7.801 22.75m53.128-22.083c-.367.366-.667 11.166-.667 24V268h6v-22h22v22h6v-48h-6v20.068l-10.75-.284-10.75-.284-.286-9.75c-.277-9.421-.364-9.75-2.584-9.75-1.263 0-2.597.3-2.963.667M159 234.5v8.5h6.351c10.862 0 14.649-2.322 14.649-8.98 0-5.791-3.6-8.02-12.955-8.02H159v8.5m62.625 1.823c-1.581 5.047-3.081 9.74-3.333 10.427-.338.92 1.28 1.25 6.125 1.25 3.62 0 6.583-.355 6.583-.788 0-.434-1.463-5.126-3.25-10.428l-3.25-9.639-2.875 9.178" fill-rule="evenodd"/>

<path fill="#040404" stroke="#040404" d="M99 82.378c0 .596-9.774 51.966-10.535 55.372l-.503 2.25h15.337c22.745 0 28.974-2.61 32.256-13.516 1.855-6.163.548-11.609-3.506-14.606l-2.874-2.125 3.822-3.635c4.672-4.445 5.976-9.617 3.902-15.48-2.555-7.226-4.857-8.093-22.468-8.458-8.487-.177-15.431-.087-15.431.198m8.138 14.289c-1.761 8.77-2.123 8.333 6.907 8.333 9.279 0 12.955-2.241 12.955-7.898 0-4.494-3.053-6.102-11.584-6.102h-7.14l-1.138 5.667m-3.624 19.583c-.511 1.512-2.514 12.728-2.514 14.081 0 2.135 19.024-.005 21.607-2.432 3.849-3.615 3.216-9.377-1.291-11.749-3.047-1.604-17.252-1.524-17.802.1m48.002 7c-.793 3.417-10.516 54.366-10.516 55.105 0 .355 8.55.645 19 .645s18.989.338 18.976.75c-.013.412-.416 2.438-.895 4.5l-.87 3.75h4.375c4.868 0 4.323.9 6.788-11.213 1.457-7.158 1.331-7.787-1.56-7.787-1.41 0-1.727-.537-1.327-2.25.804-3.445 8.497-44.147 8.506-45 .004-.412-2.38-.75-5.297-.75h-5.305l-4.337 22.75c-2.386 12.512-4.547 23.313-4.803 24-.668 1.795-20.251 1.775-20.251-.02 0-1.07 7.221-39.648 8.419-44.98.337-1.499-.38-1.75-4.994-1.75-4.765 0-5.447.26-5.909 2.25m2.151 97.417c-.367.366-.667 11.166-.667 24V268h6v-18.718l8.365-.522c13.679-.853 18.135-4.48 18.135-14.76 0-7.166-2.425-10.956-8.106-12.671-4.167-1.258-22.617-1.773-23.727-.662m67.908.211c-.298.483-4.109 11.309-8.468 24.057l-7.924 23.178 3.052-.306c2.838-.285 3.193-.783 5.068-7.091l2.015-6.785 9.508.285 9.508.284 2.162 6.5c2.025 6.089 2.369 6.52 5.44 6.821 1.803.177 3.118-.107 2.921-.632-.196-.524-4.166-11.356-8.821-24.071C227.822 220.68 227.493 220 224.845 220c-1.5 0-2.971.395-3.27.878M267 244v24h5v-22h22v22h6V219.867l-2.75.317-2.75.316-.286 9.75-.286 9.75H272v-20h-5v24m-108-9.5v8.5h8.045c9.779 0 12.955-2.153 12.955-8.78 0-6.387-2.858-8.22-12.814-8.22H159v8.5m62.142 2.361c-1.728 5.451-3.142 10.187-3.142 10.525 0 .338 3.12.614 6.934.614h6.934l-3.419-10.152c-1.88-5.583-3.587-10.319-3.792-10.524-.206-.206-1.787 4.086-3.515 9.537" fill-rule="evenodd"/>

</svg>